<svg xmlns="http://www.w3.org/2000/svg" xmlns:xlink="http://www.w3.org/1999/xlink" width="500" zoomAndPan="magnify" viewBox="0 0 375 374.999991" height="500" preserveAspectRatio="xMidYMid meet" version="1.0"><defs><g/><clipPath id="2638c8cadf"><path d="M 44 75 L 325 75 L 325 259 L 44 259 Z M 44 75 " clip-rule="nonzero"/></clipPath><clipPath id="1d6652e85e"><path d="M 150.714844 17.121094 L 374.839844 185.785156 L 263.898438 333.203125 L 39.773438 164.539062 Z M 150.714844 17.121094 " clip-rule="nonzero"/></clipPath><clipPath id="d536309d3c"><path d="M 150.714844 17.121094 L 374.839844 185.785156 L 263.898438 333.203125 L 39.773438 164.539062 Z M 150.714844 17.121094 " clip-rule="nonzero"/></clipPath><clipPath id="b26a97566b"><path d="M 40.046875 52.261719 L 345.296875 52.261719 L 345.296875 293.761719 L 40.046875 293.761719 Z M 40.046875 52.261719 " clip-rule="nonzero"/></clipPath></defs><g clip-path="url(#2638c8cadf)"><g clip-path="url(#1d6652e85e)"><g clip-path="url(#d536309d3c)"><path fill="#414141" d="M 223.792969 82.839844 C 168.625 65.234375 105.875 81.820312 67.019531 129.414062 C 57.261719 141.363281 49.726562 154.40625 44.355469 168.027344 L 44.816406 168.179688 C 50.105469 154.753906 57.574219 141.914062 67.269531 130.164062 C 69.378906 127.605469 71.566406 125.144531 73.816406 122.773438 C 81.6875 130.953125 90.101562 138.730469 99.042969 146.082031 C 92.144531 157.003906 86.464844 168.550781 81.996094 180.394531 L 82.328125 180.503906 C 86.777344 168.710938 92.46875 157.234375 99.410156 146.386719 C 106.75 152.40625 114.445312 158.132812 122.492188 163.527344 C 127.871094 167.136719 133.324219 170.535156 138.851562 173.746094 C 135.632812 181.117188 132.671875 188.613281 129.988281 196.164062 L 130.179688 196.226562 C 132.855469 188.691406 135.816406 181.203125 139.042969 173.851562 C 156.417969 183.929688 174.457031 192.050781 192.878906 198.257812 L 184.042969 226.164062 L 193.339844 198.410156 C 211.339844 204.441406 229.703125 208.660156 248.179688 211.101562 C 246.503906 218.378906 244.554688 225.726562 242.328125 233.078125 L 242.523438 233.140625 C 244.75 225.78125 246.703125 218.417969 248.398438 211.132812 C 263.277344 213.089844 278.234375 213.902344 293.128906 213.589844 C 292.152344 224.941406 290.070312 236.410156 286.886719 247.71875 L 287.246094 247.835938 C 290.441406 236.476562 292.5625 224.96875 293.601562 213.574219 C 303.695312 213.347656 313.761719 212.605469 323.757812 211.355469 C 324.972656 227.089844 323.574219 243.007812 319.480469 258.425781 L 319.953125 258.582031 C 334.132812 205.140625 317.03125 145.945312 271.429688 108.714844 C 259.957031 99.347656 247.484375 92.027344 234.445312 86.707031 C 233.347656 86.230469 232.246094 85.777344 231.132812 85.347656 C 230.296875 84.984375 229.4375 84.671875 228.574219 84.410156 C 228.503906 84.386719 228.433594 84.375 228.363281 84.355469 C 227.761719 84.148438 227.15625 83.9375 226.550781 83.742188 C 226.429688 83.707031 226.304688 83.675781 226.1875 83.640625 C 225.390625 83.371094 224.59375 83.09375 223.792969 82.839844 Z M 227.117188 86.460938 C 227.460938 86.582031 227.804688 86.703125 228.148438 86.828125 L 222.828125 103.652344 C 214.238281 100.675781 205.976562 97.15625 198.0625 93.144531 C 208.519531 86.472656 218.480469 84.101562 227.117188 86.460938 Z M 230.414062 87.65625 C 230.621094 87.734375 230.824219 87.824219 231.03125 87.902344 C 236.597656 90.507812 241.5 95.308594 245.46875 102.488281 C 246.875 105.03125 248.121094 107.808594 249.226562 110.792969 C 241.40625 109.246094 233.605469 107.222656 225.855469 104.675781 C 225.511719 104.5625 225.175781 104.441406 224.835938 104.324219 Z M 216.742188 83.691406 C 210.421875 84.652344 203.664062 87.609375 196.703125 92.441406 C 191.703125 89.855469 186.84375 87.070312 182.140625 84.105469 C 193.828125 81.683594 205.511719 81.515625 216.742188 83.691406 Z M 240.601562 92.339844 C 247.636719 96.21875 254.292969 101.230469 260.433594 107.402344 C 262.324219 109.304688 264.128906 111.289062 265.859375 113.347656 C 260.824219 112.792969 255.777344 112.046875 250.746094 111.089844 C 249.476562 107.210938 247.96875 103.640625 246.230469 100.433594 C 244.523438 97.292969 242.640625 94.597656 240.601562 92.339844 Z M 201.597656 79.976562 C 194.417969 79.988281 187.136719 80.886719 179.871094 82.664062 C 177.660156 81.230469 175.492188 79.75 173.351562 78.234375 C 182.761719 77.910156 192.226562 78.484375 201.597656 79.976562 Z M 255.660156 100.15625 C 260.78125 103.335938 265.761719 106.851562 270.566406 110.734375 C 271.933594 111.839844 273.277344 112.972656 274.59375 114.113281 C 272.558594 113.980469 270.519531 113.820312 268.480469 113.625 C 266.21875 110.734375 263.804688 107.976562 261.242188 105.367188 C 259.429688 103.523438 257.5625 101.792969 255.660156 100.15625 Z M 170.382812 78.367188 C 172.707031 80.058594 175.070312 81.703125 177.476562 83.296875 C 168.992188 85.597656 160.539062 89.078125 152.292969 93.707031 C 148.148438 90.339844 144.144531 86.832031 140.289062 83.203125 C 150.121094 80.546875 160.214844 78.925781 170.382812 78.367188 Z M 276.855469 116.121094 C 285.816406 124.226562 293.53125 133.207031 299.984375 142.832031 C 294.957031 143.042969 289.902344 143.09375 284.851562 142.957031 C 281.046875 133.023438 276.105469 123.820312 270.015625 115.632812 C 272.296875 115.832031 274.578125 116 276.855469 116.121094 Z M 179.5625 84.675781 C 179.566406 84.675781 179.570312 84.683594 179.574219 84.679688 C 184.546875 87.886719 189.695312 90.878906 195.007812 93.65625 C 188.996094 98.070312 182.851562 103.855469 176.71875 110.933594 C 168.542969 105.957031 160.78125 100.511719 153.457031 94.644531 C 162.011719 90.085938 170.773438 86.746094 179.5625 84.675781 Z M 267.546875 115.402344 C 274.078125 123.589844 279.394531 132.859375 283.484375 142.917969 C 274.234375 142.613281 264.964844 141.703125 255.71875 140.199219 C 255.152344 130.160156 253.71875 121.019531 251.359375 113.09375 C 256.757812 114.09375 262.15625 114.863281 267.546875 115.402344 Z M 196.289062 94.316406 C 204.558594 98.566406 213.226562 102.28125 222.257812 105.40625 L 214.683594 129.339844 C 208.097656 126.890625 201.570312 124.113281 195.117188 120.980469 C 189 118.011719 183.082031 114.78125 177.367188 111.328125 C 183.714844 104.230469 190.085938 98.539062 196.289062 94.316406 Z M 249.941406 112.8125 C 252.597656 120.695312 254.257812 129.90625 254.984375 140.085938 C 241.964844 137.921875 229.011719 134.550781 216.253906 129.914062 L 224.238281 106.070312 C 224.574219 106.183594 224.90625 106.304688 225.246094 106.414062 C 233.441406 109.109375 241.6875 111.226562 249.945312 112.8125 Z M 139.160156 83.511719 C 143.109375 87.195312 147.222656 90.746094 151.472656 94.160156 C 141.78125 99.695312 132.394531 106.828125 123.582031 115.46875 C 117.023438 109.953125 110.78125 104.132812 104.867188 98.042969 C 115.6875 91.679688 127.226562 86.835938 139.160156 83.511719 Z M 300.496094 143.59375 C 306.648438 152.902344 311.613281 162.789062 315.386719 173.039062 C 307.917969 173.917969 300.390625 174.460938 292.832031 174.671875 C 291.351562 163.8125 288.777344 153.378906 285.109375 143.636719 C 290.246094 143.792969 295.382812 143.789062 300.496094 143.59375 Z M 152.632812 95.082031 C 160.070312 100.980469 167.949219 106.460938 176.257812 111.464844 C 169.640625 119.179688 163.042969 128.390625 156.65625 139 C 145.132812 132.125 134.304688 124.425781 124.214844 116.003906 C 133.183594 107.4375 142.757812 100.445312 152.632812 95.082031 Z M 283.761719 143.59375 C 287.65625 153.332031 290.40625 163.792969 292.03125 174.695312 C 279.683594 174.996094 267.25 174.402344 254.820312 172.847656 C 255.945312 161.515625 256.273438 150.722656 255.75 140.792969 C 265.078125 142.328125 274.429688 143.25 283.761719 143.59375 Z M 176.914062 111.851562 C 182.476562 115.171875 188.222656 118.296875 194.160156 121.179688 C 200.875 124.441406 207.671875 127.320312 214.527344 129.859375 L 204.601562 161.214844 C 198.914062 159.265625 193.253906 157.105469 187.632812 154.714844 C 176.945312 150.179688 166.726562 144.980469 157.003906 139.199219 C 163.488281 128.601562 170.1875 119.441406 176.914062 111.847656 Z M 255.035156 140.671875 C 255.707031 150.585938 255.492188 161.410156 254.4375 172.792969 C 238.101562 170.722656 221.769531 167.019531 205.660156 161.578125 L 216.085938 130.429688 C 228.914062 135.070312 241.949219 138.472656 255.035156 140.671875 Z M 103.699219 98.753906 C 109.726562 104.875 116.082031 110.730469 122.769531 116.265625 C 115.503906 123.492188 108.640625 131.753906 102.347656 141.023438 C 101.386719 142.441406 100.453125 143.867188 99.53125 145.308594 C 90.6875 137.949219 82.371094 130.136719 74.597656 121.9375 C 83.394531 112.800781 93.203125 105.0625 103.699219 98.753906 Z M 315.71875 173.929688 C 319.914062 185.558594 322.550781 197.640625 323.625 209.851562 C 313.710938 211.175781 303.722656 211.980469 293.707031 212.289062 C 294.761719 199.75 294.515625 187.355469 292.957031 175.464844 C 300.582031 175.289062 308.183594 174.773438 315.71875 173.929688 Z M 123.40625 116.785156 C 133.613281 125.183594 144.570312 132.863281 156.222656 139.722656 C 153.203125 144.773438 150.230469 150.132812 147.332031 155.796875 C 144.4375 161.445312 141.707031 167.21875 139.136719 173.070312 C 133.953125 170.042969 128.835938 166.828125 123.78125 163.4375 C 115.441406 157.847656 107.488281 151.894531 99.914062 145.613281 C 100.757812 144.3125 101.605469 143.011719 102.484375 141.730469 C 108.910156 132.347656 115.945312 124.019531 123.40625 116.785156 Z M 292.152344 175.496094 C 293.855469 187.371094 294.222656 199.761719 293.234375 212.300781 C 278.375 212.730469 263.457031 212.035156 248.609375 210.171875 C 251.488281 197.597656 253.554688 185.253906 254.757812 173.472656 C 267.25 175.066406 279.742188 175.738281 292.152344 175.496094 Z M 156.554688 139.914062 C 166.089844 145.507812 176.082031 150.554688 186.53125 154.992188 C 192.453125 157.503906 198.417969 159.761719 204.410156 161.800781 L 193.089844 197.554688 C 174.6875 191.398438 156.671875 183.289062 139.332031 173.175781 C 141.832031 167.511719 144.496094 161.929688 147.3125 156.460938 C 150.324219 150.609375 153.414062 145.097656 156.554688 139.917969 Z M 254.375 173.417969 C 253.253906 185.195312 251.242188 197.554688 248.386719 210.144531 C 229.914062 207.816406 211.554688 203.695312 193.566406 197.710938 L 205.46875 162.164062 C 221.621094 167.585938 237.996094 171.308594 254.375 173.421875 Z M 254.375 173.417969 " fill-opacity="1" fill-rule="nonzero"/></g></g></g><g clip-path="url(#b26a97566b)"><path fill="#414141" d="M 329.644531 154.132812 C 329.640625 147.617188 327.109375 141.496094 322.507812 136.890625 L 260.917969 75.214844 C 256.320312 70.609375 250.207031 68.070312 243.703125 68.066406 L 80.050781 68.066406 C 66.625 68.066406 55.699219 78.984375 55.699219 92.40625 L 55.699219 253.585938 C 55.707031 267.023438 66.628906 277.957031 80.050781 277.957031 L 305.292969 277.957031 C 318.71875 277.957031 329.644531 267.019531 329.644531 253.570312 Z M 40.046875 253.59375 L 40.046875 92.40625 C 40.046875 70.34375 57.992188 52.390625 80.050781 52.390625 L 243.707031 52.390625 C 254.390625 52.394531 264.433594 56.5625 271.988281 64.128906 L 333.574219 125.804688 C 341.132812 133.367188 345.292969 143.425781 345.296875 154.128906 L 345.296875 253.570312 C 345.296875 275.664062 327.347656 293.636719 305.292969 293.636719 L 80.050781 293.636719 C 58.003906 293.636719 40.058594 275.671875 40.046875 253.59375 " fill-opacity="1" fill-rule="nonzero"/></g><g fill="#414141" fill-opacity="1"><g transform="translate(79.465687, 351.972014)"><g><path d="M 9.84375 0 C 17.957031 0 21.492188 -3.996094 21.492188 -10.664062 C 21.492188 -17.441406 17.847656 -21.382812 9.84375 -21.382812 L 2.6875 -21.382812 C 2.3125 -21.382812 2.117188 -21.1875 2.117188 -20.8125 L 2.117188 -0.570312 C 2.117188 -0.195312 2.3125 0 2.6875 0 Z M 7.863281 -16.539062 L 9.871094 -16.539062 C 13.878906 -16.539062 15.800781 -14.449219 15.800781 -10.746094 C 15.800781 -7.042969 13.878906 -4.84375 9.871094 -4.84375 L 7.863281 -4.84375 Z M 7.863281 -16.539062 "/></g></g></g><g fill="#414141" fill-opacity="1"><g transform="translate(125.078942, 351.972014)"><g><path d="M 7.238281 0 C 7.613281 0 7.808594 -0.195312 7.808594 -0.570312 L 7.808594 -20.8125 C 7.808594 -21.1875 7.613281 -21.382812 7.238281 -21.382812 L 2.6875 -21.382812 C 2.3125 -21.382812 2.117188 -21.1875 2.117188 -20.8125 L 2.117188 -0.570312 C 2.117188 -0.195312 2.3125 0 2.6875 0 Z M 7.238281 0 "/></g></g></g><g fill="#414141" fill-opacity="1"><g transform="translate(157.818313, 351.972014)"><g><path d="M 15.9375 -8.03125 C 18.039062 -9.132812 19.238281 -11.414062 19.238281 -14.503906 C 19.238281 -18.167969 17.59375 -21.382812 11.566406 -21.382812 L 2.6875 -21.382812 C 2.3125 -21.382812 2.117188 -21.1875 2.117188 -20.8125 L 2.117188 -0.570312 C 2.117188 -0.195312 2.3125 0 2.6875 0 L 7.265625 0 C 7.640625 0 7.835938 -0.195312 7.835938 -0.570312 L 7.835938 -7.292969 L 10.246094 -7.292969 L 13.683594 -0.429688 C 13.824219 -0.140625 14.03125 0 14.339844 0 L 19.53125 0 C 19.960938 0 20.128906 -0.277344 19.933594 -0.683594 Z M 10.578125 -16.539062 C 11.722656 -16.539062 13.542969 -16.539062 13.542969 -14.449219 C 13.542969 -12.140625 11.375 -12.140625 10.578125 -12.140625 L 7.835938 -12.140625 L 7.835938 -16.539062 Z M 10.578125 -16.539062 "/></g></g></g><g fill="#414141" fill-opacity="1"><g transform="translate(201.789271, 351.972014)"><g><path d="M 15.996094 0 C 16.371094 0 16.566406 -0.195312 16.566406 -0.570312 L 16.566406 -4.273438 C 16.566406 -4.648438 16.371094 -4.84375 15.996094 -4.84375 L 7.808594 -4.84375 L 7.808594 -7.351562 L 14.882812 -7.351562 C 15.257812 -7.351562 15.453125 -7.558594 15.453125 -7.921875 L 15.453125 -11.34375 C 15.453125 -11.722656 15.257812 -11.914062 14.882812 -11.914062 L 7.808594 -11.914062 L 7.808594 -16.539062 L 15.996094 -16.539062 C 16.371094 -16.539062 16.566406 -16.734375 16.566406 -17.109375 L 16.566406 -20.8125 C 16.566406 -21.1875 16.371094 -21.382812 15.996094 -21.382812 L 2.6875 -21.382812 C 2.3125 -21.382812 2.117188 -21.1875 2.117188 -20.8125 L 2.117188 -0.570312 C 2.117188 -0.195312 2.3125 0 2.6875 0 Z M 15.996094 0 "/></g></g></g><g fill="#414141" fill-opacity="1"><g transform="translate(242.795769, 351.972014)"><g><path d="M 12.835938 0.570312 C 16.941406 0.570312 20.242188 -0.972656 22.257812 -3.535156 C 22.46875 -3.785156 22.382812 -4.023438 22.0625 -4.246094 L 18.304688 -6.75 C 18.011719 -6.960938 17.761719 -6.90625 17.539062 -6.613281 C 16.480469 -5.332031 14.851562 -4.566406 12.835938 -4.566406 C 9.300781 -4.566406 6.960938 -6.90625 6.960938 -10.691406 C 6.960938 -14.476562 9.300781 -16.816406 12.835938 -16.816406 C 14.851562 -16.816406 16.480469 -16.050781 17.539062 -14.769531 C 17.761719 -14.476562 18.011719 -14.421875 18.304688 -14.628906 L 22.0625 -17.136719 C 22.382812 -17.359375 22.441406 -17.625 22.203125 -17.902344 C 20.15625 -20.433594 16.871094 -21.953125 12.835938 -21.953125 C 5.875 -21.953125 1.253906 -17.566406 1.253906 -10.691406 C 1.253906 -3.8125 5.875 0.570312 12.835938 0.570312 Z M 12.835938 0.570312 "/></g></g></g><g fill="#414141" fill-opacity="1"><g transform="translate(288.896149, 351.972014)"><g><path d="M 10.609375 0 C 10.96875 0 11.179688 -0.195312 11.179688 -0.570312 L 11.179688 -16.539062 L 15.480469 -16.539062 C 15.855469 -16.539062 16.050781 -16.734375 16.050781 -17.109375 L 16.050781 -20.8125 C 16.050781 -21.1875 15.855469 -21.382812 15.480469 -21.382812 L 1.140625 -21.382812 C 0.765625 -21.382812 0.570312 -21.1875 0.570312 -20.8125 L 0.570312 -17.109375 C 0.570312 -16.734375 0.765625 -16.539062 1.140625 -16.539062 L 5.441406 -16.539062 L 5.441406 -0.570312 C 5.441406 -0.195312 5.652344 0 6.011719 0 Z M 10.609375 0 "/></g></g></g><g fill="#414141" fill-opacity="1"><g transform="translate(67.188898, 243.48063)"><g><path d="M 6.390625 0 L 6.390625 -144.28125 L 64.171875 -144.28125 L 64.171875 -116.40625 L 35.78125 -116.40625 L 35.78125 -88.359375 L 62.984375 -88.359375 L 62.984375 -61.140625 L 35.78125 -61.140625 L 35.78125 -28.046875 L 66.015625 -28.046875 L 66.015625 0 Z M 6.390625 0 "/></g></g></g><g fill="#414141" fill-opacity="1"><g transform="translate(153.996659, 244.068307)"><g><path d="M 17.4375 0.578125 C 11.820312 0.578125 7.765625 -0.8125 5.265625 -3.59375 C 2.765625 -6.382812 1.515625 -10.878906 1.515625 -17.078125 L 1.515625 -23.140625 L 13.6875 -23.140625 L 13.6875 -15.421875 C 13.6875 -12.347656 14.675781 -10.8125 16.65625 -10.8125 C 17.757812 -10.8125 18.523438 -11.132812 18.953125 -11.78125 C 19.390625 -12.4375 19.609375 -13.53125 19.609375 -15.0625 C 19.609375 -17.082031 19.363281 -18.753906 18.875 -20.078125 C 18.394531 -21.398438 17.78125 -22.503906 17.03125 -23.390625 C 16.289062 -24.273438 14.960938 -25.65625 13.046875 -27.53125 L 7.71875 -32.875 C 3.582031 -36.90625 1.515625 -41.375 1.515625 -46.28125 C 1.515625 -51.5625 2.726562 -55.582031 5.15625 -58.34375 C 7.582031 -61.101562 11.125 -62.484375 15.78125 -62.484375 C 21.351562 -62.484375 25.363281 -61.003906 27.8125 -58.046875 C 30.269531 -55.097656 31.5 -50.476562 31.5 -44.1875 L 18.890625 -44.1875 L 18.8125 -48.4375 C 18.8125 -49.25 18.582031 -49.894531 18.125 -50.375 C 17.664062 -50.863281 17.03125 -51.109375 16.21875 -51.109375 C 15.257812 -51.109375 14.535156 -50.84375 14.046875 -50.3125 C 13.566406 -49.78125 13.328125 -49.054688 13.328125 -48.140625 C 13.328125 -46.128906 14.484375 -44.039062 16.796875 -41.875 L 24 -34.953125 C 25.6875 -33.316406 27.082031 -31.765625 28.1875 -30.296875 C 29.289062 -28.835938 30.175781 -27.109375 30.84375 -25.109375 C 31.519531 -23.117188 31.859375 -20.753906 31.859375 -18.015625 C 31.859375 -11.910156 30.738281 -7.285156 28.5 -4.140625 C 26.269531 -0.992188 22.582031 0.578125 17.4375 0.578125 Z M 17.4375 0.578125 "/></g></g></g><g fill="#414141" fill-opacity="1"><g transform="translate(205.964007, 244.068307)"><g><path d="M 2.15625 0 L 2.15625 -61.921875 L 14.125 -61.921875 L 14.125 0 Z M 2.15625 0 "/></g></g></g><g fill="#414141" fill-opacity="1"><g transform="translate(241.066912, 244.068307)"><g><path d="M 2.734375 0 L 2.734375 -61.921875 L 21.625 -61.921875 L 26.8125 -24.140625 L 32 -61.921875 L 51.03125 -61.921875 L 51.03125 0 L 39.71875 0 L 39.71875 -44.609375 L 32.578125 0 L 21.484375 0 L 13.90625 -44.609375 L 13.90625 0 Z M 2.734375 0 "/></g></g></g></svg>