<svg xmlns="http://www.w3.org/2000/svg" xmlns:xlink="http://www.w3.org/1999/xlink" width="500" zoomAndPan="magnify" viewBox="0 0 375 374.999991" height="500" preserveAspectRatio="xMidYMid meet" version="1.0"><defs><g/><clipPath id="025a478350"><path d="M 35.027344 66.796875 L 340.277344 66.796875 L 340.277344 308.296875 L 35.027344 308.296875 Z M 35.027344 66.796875 " clip-rule="nonzero"/></clipPath></defs><g clip-path="url(#025a478350)"><path fill="#ebebeb" d="M 324.621094 168.664062 C 324.621094 162.152344 322.089844 156.03125 317.488281 151.425781 L 255.898438 89.75 C 251.300781 85.144531 245.183594 82.605469 238.683594 82.601562 L 75.03125 82.601562 C 61.605469 82.601562 50.679688 93.519531 50.679688 106.941406 L 50.679688 268.121094 C 50.6875 281.554688 61.609375 292.492188 75.03125 292.492188 L 300.273438 292.492188 C 313.699219 292.492188 324.621094 281.554688 324.621094 268.105469 Z M 35.027344 268.128906 L 35.027344 106.941406 C 35.027344 84.875 52.972656 66.925781 75.03125 66.925781 L 238.683594 66.925781 C 249.371094 66.929688 259.414062 71.097656 266.96875 78.664062 L 328.554688 140.339844 C 336.113281 147.902344 340.273438 157.960938 340.277344 168.664062 L 340.277344 268.105469 C 340.277344 290.195312 322.328125 308.167969 300.273438 308.167969 L 75.03125 308.167969 C 52.984375 308.167969 35.039062 290.207031 35.027344 268.128906 " fill-opacity="1" fill-rule="nonzero"/></g><g fill="#ebebeb" fill-opacity="1"><g transform="translate(74.231683, 235.874985)"><g><path d="M 4.5625 0 L 4.5625 -103.0625 L 45.828125 -103.0625 L 45.828125 -83.15625 L 25.5625 -83.15625 L 25.5625 -63.109375 L 45 -63.109375 L 45 -43.671875 L 25.5625 -43.671875 L 25.5625 -20.03125 L 47.15625 -20.03125 L 47.15625 0 Z M 4.5625 0 "/></g></g></g><g fill="#ebebeb" fill-opacity="1"><g transform="translate(123.662055, 235.874985)"><g><path d="M 28.3125 0.953125 C 10.957031 0.953125 2.28125 -7.84375 2.28125 -25.4375 L 2.40625 -32.390625 L 23.390625 -32.390625 L 23.515625 -22.078125 C 23.515625 -19.992188 23.914062 -18.410156 24.71875 -17.328125 C 25.519531 -16.253906 26.835938 -15.71875 28.671875 -15.71875 C 31.472656 -15.71875 32.875 -18 32.875 -22.5625 C 32.875 -25.914062 32.210938 -28.550781 30.890625 -30.46875 C 29.578125 -32.394531 27.476562 -34.4375 24.59375 -36.59375 L 13.4375 -45.234375 C 9.59375 -48.191406 6.832031 -51.25 5.15625 -54.40625 C 3.476562 -57.570312 2.640625 -62.035156 2.640625 -67.796875 C 2.640625 -72.273438 3.816406 -76.09375 6.171875 -79.25 C 8.535156 -82.40625 11.675781 -84.78125 15.59375 -86.375 C 19.519531 -87.976562 23.878906 -88.78125 28.671875 -88.78125 C 45.710938 -88.78125 54.234375 -80.304688 54.234375 -63.359375 L 54.234375 -61.671875 L 32.515625 -61.671875 L 32.515625 -65.03125 C 32.515625 -67.113281 32.171875 -68.894531 31.484375 -70.375 C 30.804688 -71.851562 29.671875 -72.59375 28.078125 -72.59375 C 26.640625 -72.59375 25.539062 -72.171875 24.78125 -71.328125 C 24.019531 -70.492188 23.640625 -69.351562 23.640625 -67.90625 C 23.640625 -64.707031 24.878906 -62.226562 27.359375 -60.46875 L 40.3125 -51 C 44.957031 -47.550781 48.519531 -43.804688 51 -39.765625 C 53.476562 -35.734375 54.71875 -30.640625 54.71875 -24.484375 C 54.71875 -16.316406 52.394531 -10.035156 47.75 -5.640625 C 43.113281 -1.242188 36.632812 0.953125 28.3125 0.953125 Z M 28.3125 0.953125 "/></g></g></g><g fill="#ebebeb" fill-opacity="1"><g transform="translate(180.65095, 235.874985)"><g><path d="M 4.078125 -93.703125 L 4.078125 -108.34375 L 25.078125 -108.34375 L 25.078125 -93.703125 Z M 4.078125 0 L 4.078125 -87.828125 L 25.078125 -87.828125 L 25.078125 0 Z M 4.078125 0 "/></g></g></g><g fill="#ebebeb" fill-opacity="1"><g transform="translate(209.805276, 235.874985)"><g><path d="M 4.203125 -87.828125 L 24.71875 -87.828125 L 24.71875 -77.625 C 25.675781 -81.382812 27.3125 -84.179688 29.625 -86.015625 C 31.945312 -87.859375 35.226562 -88.78125 39.46875 -88.78125 C 42.914062 -88.78125 45.894531 -88 48.40625 -86.4375 C 50.925781 -84.882812 52.707031 -82.75 53.75 -80.03125 C 55.507812 -83.070312 57.46875 -85.289062 59.625 -86.6875 C 61.789062 -88.082031 64.789062 -88.78125 68.625 -88.78125 C 75.507812 -88.78125 80.289062 -86.679688 82.96875 -82.484375 C 85.644531 -78.285156 86.984375 -72.1875 86.984375 -64.1875 L 86.75 0 L 65.625 0 L 65.625 -64.546875 C 65.625 -70.234375 64.1875 -73.078125 61.3125 -73.078125 C 59.3125 -73.078125 57.867188 -72.09375 56.984375 -70.125 C 56.109375 -68.164062 55.671875 -65.828125 55.671875 -63.109375 L 55.671875 0 L 34.671875 0 L 34.671875 -64.546875 C 34.671875 -67.023438 34.410156 -69.023438 33.890625 -70.546875 C 33.367188 -72.066406 32.269531 -72.828125 30.59375 -72.828125 C 28.4375 -72.828125 26.914062 -71.765625 26.03125 -69.640625 C 25.15625 -67.523438 24.71875 -64.988281 24.71875 -62.03125 L 24.71875 0 L 4.203125 0 Z M 4.203125 -87.828125 "/></g></g></g></svg>