<svg xmlns="http://www.w3.org/2000/svg" xmlns:xlink="http://www.w3.org/1999/xlink" width="40" zoomAndPan="magnify" viewBox="0 0 30 30.000001" height="40" preserveAspectRatio="xMidYMid meet" version="1.0"><defs><clipPath id="eba34afa22"><path d="M 0.484375 4.882812 L 29.515625 4.882812 L 29.515625 24.476562 L 0.484375 24.476562 Z M 0.484375 4.882812 " clip-rule="nonzero"/></clipPath></defs><g clip-path="url(#eba34afa22)"><path fill="#003399" d="M 0.503906 4.878906 L 29.5 4.878906 L 29.5 24.472656 L 0.503906 24.472656 Z M 0.503906 4.878906 " fill-opacity="1" fill-rule="nonzero"/></g><path fill="#ffcc00" d="M 9.34375 10.367188 L 9.636719 11.109375 L 10.421875 11.128906 L 9.820312 11.644531 L 10.042969 12.410156 L 9.375 11.988281 L 8.726562 12.4375 L 8.917969 11.664062 L 8.296875 11.175781 L 9.078125 11.121094 Z M 9.34375 10.367188 " fill-opacity="1" fill-rule="nonzero"/><path fill="#ffcc00" d="M 18.121094 19.296875 L 18.414062 20.035156 L 19.199219 20.058594 L 18.597656 20.570312 L 18.820312 21.335938 L 18.152344 20.914062 L 17.507812 21.363281 L 17.695312 20.589844 L 17.074219 20.101562 L 17.855469 20.046875 Z M 18.121094 19.296875 " fill-opacity="1" fill-rule="nonzero"/><path fill="#ffcc00" d="M 11.699219 7.972656 L 11.992188 8.710938 L 12.777344 8.734375 L 12.175781 9.25 L 12.394531 10.015625 L 11.730469 9.589844 L 11.082031 10.042969 L 11.273438 9.269531 L 10.652344 8.78125 L 11.433594 8.722656 Z M 11.699219 7.972656 " fill-opacity="1" fill-rule="nonzero"/><path fill="#ffcc00" d="M 11.699219 19.296875 L 11.992188 20.035156 L 12.777344 20.058594 L 12.175781 20.570312 L 12.394531 21.335938 L 11.730469 20.914062 L 11.082031 21.363281 L 11.273438 20.589844 L 10.652344 20.101562 L 11.433594 20.046875 Z M 11.699219 19.296875 " fill-opacity="1" fill-rule="nonzero"/><path fill="#ffcc00" d="M 18.121094 7.972656 L 18.414062 8.710938 L 19.199219 8.734375 L 18.597656 9.25 L 18.820312 10.015625 L 18.152344 9.589844 L 17.507812 10.042969 L 17.695312 9.269531 L 17.074219 8.78125 L 17.855469 8.722656 Z M 18.121094 7.972656 " fill-opacity="1" fill-rule="nonzero"/><path fill="#ffcc00" d="M 9.34375 16.902344 L 9.636719 17.640625 L 10.421875 17.664062 L 9.820312 18.175781 L 10.042969 18.941406 L 9.375 18.519531 L 8.726562 18.96875 L 8.917969 18.195312 L 8.296875 17.707031 L 9.078125 17.652344 Z M 9.34375 16.902344 " fill-opacity="1" fill-rule="nonzero"/><path fill="#ffcc00" d="M 20.476562 10.367188 L 20.769531 11.109375 L 21.554688 11.128906 L 20.953125 11.644531 L 21.175781 12.410156 L 20.507812 11.988281 L 19.859375 12.4375 L 20.050781 11.664062 L 19.429688 11.175781 L 20.210938 11.121094 Z M 20.476562 10.367188 " fill-opacity="1" fill-rule="nonzero"/><path fill="#ffcc00" d="M 21.332031 13.632812 L 21.625 14.375 L 22.410156 14.398438 L 21.808594 14.910156 L 22.03125 15.675781 L 21.363281 15.253906 L 20.71875 15.703125 L 20.90625 14.929688 L 20.285156 14.441406 L 21.066406 14.386719 Z M 21.332031 13.632812 " fill-opacity="1" fill-rule="nonzero"/><path fill="#ffcc00" d="M 8.488281 13.632812 L 8.78125 14.375 L 9.566406 14.398438 L 8.964844 14.910156 L 9.183594 15.675781 L 8.519531 15.253906 L 7.871094 15.703125 L 8.0625 14.929688 L 7.441406 14.441406 L 8.222656 14.386719 Z M 8.488281 13.632812 " fill-opacity="1" fill-rule="nonzero"/><path fill="#ffcc00" d="M 14.910156 20.167969 L 15.203125 20.90625 L 15.988281 20.929688 L 15.386719 21.441406 L 15.609375 22.207031 L 14.941406 21.785156 L 14.292969 22.234375 L 14.484375 21.460938 L 13.863281 20.972656 L 14.644531 20.917969 Z M 14.910156 20.167969 " fill-opacity="1" fill-rule="nonzero"/><path fill="#ffcc00" d="M 14.910156 7.101562 L 15.203125 7.839844 L 15.988281 7.863281 L 15.386719 8.378906 L 15.609375 9.144531 L 14.941406 8.722656 L 14.292969 9.171875 L 14.484375 8.398438 L 13.863281 7.910156 L 14.644531 7.851562 Z M 14.910156 7.101562 " fill-opacity="1" fill-rule="nonzero"/><path fill="#ffcc00" d="M 20.476562 16.902344 L 20.769531 17.640625 L 21.554688 17.664062 L 20.953125 18.175781 L 21.175781 18.941406 L 20.507812 18.519531 L 19.859375 18.96875 L 20.050781 18.195312 L 19.429688 17.707031 L 20.210938 17.652344 Z M 20.476562 16.902344 " fill-opacity="1" fill-rule="nonzero"/></svg>