<svg xmlns="http://www.w3.org/2000/svg" xmlns:xlink="http://www.w3.org/1999/xlink" width="600" zoomAndPan="magnify" viewBox="0 0 450 60" height="80" preserveAspectRatio="xMidYMid meet" version="1.0"><defs><g/><clipPath id="690877ae63"><path d="M 7 11 L 54 11 L 54 42 L 7 42 Z M 7 11 " clip-rule="nonzero"/></clipPath><clipPath id="0d04906af8"><path d="M 24.882812 1.871094 L 62.035156 29.832031 L 43.546875 54.402344 L 6.390625 26.441406 Z M 24.882812 1.871094 " clip-rule="nonzero"/></clipPath><clipPath id="62c48167ea"><path d="M 24.882812 1.871094 L 62.035156 29.832031 L 43.546875 54.402344 L 6.390625 26.441406 Z M 24.882812 1.871094 " clip-rule="nonzero"/></clipPath><clipPath id="49a04d944e"><path d="M 24.882812 1.871094 L 62.035156 29.832031 L 43.546875 54.402344 L 6.390625 26.441406 Z M 24.882812 1.871094 " clip-rule="nonzero"/></clipPath><clipPath id="46319ac6b1"><path d="M 6.761719 7.671875 L 57.011719 7.671875 L 57.011719 47.421875 L 6.761719 47.421875 Z M 6.761719 7.671875 " clip-rule="nonzero"/></clipPath></defs><g clip-path="url(#690877ae63)"><g clip-path="url(#0d04906af8)"><g clip-path="url(#62c48167ea)"><g clip-path="url(#49a04d944e)"><path fill="#cccccc" d="M 36.992188 12.773438 C 27.835938 9.867188 17.40625 12.652344 10.929688 20.585938 C 9.304688 22.578125 8.046875 24.75 7.148438 27.019531 L 7.226562 27.042969 C 8.109375 24.808594 9.355469 22.667969 10.972656 20.710938 C 11.324219 20.28125 11.6875 19.875 12.0625 19.476562 C 13.367188 20.835938 14.761719 22.125 16.242188 23.34375 C 15.09375 25.164062 14.144531 27.085938 13.398438 29.058594 L 13.453125 29.078125 C 14.195312 27.113281 15.148438 25.203125 16.304688 23.394531 C 17.519531 24.394531 18.796875 25.34375 20.132812 26.238281 C 21.023438 26.835938 21.925781 27.398438 22.84375 27.929688 C 22.304688 29.15625 21.8125 30.40625 21.363281 31.664062 L 21.394531 31.671875 C 21.84375 30.417969 22.335938 29.171875 22.875 27.945312 C 25.757812 29.617188 28.75 30.960938 31.808594 31.984375 L 30.328125 36.628906 L 31.886719 32.007812 C 34.871094 33.003906 37.921875 33.699219 40.988281 34.097656 C 40.707031 35.308594 40.378906 36.53125 40.007812 37.753906 L 40.039062 37.765625 C 40.414062 36.539062 40.742188 35.316406 41.023438 34.101562 C 43.496094 34.421875 45.980469 34.550781 48.453125 34.492188 C 48.285156 36.382812 47.9375 38.289062 47.402344 40.171875 L 47.460938 40.191406 C 48 38.300781 48.355469 36.386719 48.53125 34.488281 C 50.210938 34.449219 51.882812 34.320312 53.542969 34.109375 C 53.738281 36.726562 53.5 39.375 52.8125 41.941406 L 52.890625 41.964844 C 55.269531 33.070312 52.453125 23.230469 44.894531 17.054688 C 42.992188 15.503906 40.921875 14.289062 38.761719 13.410156 C 38.578125 13.332031 38.394531 13.257812 38.210938 13.1875 C 38.070312 13.125 37.929688 13.074219 37.785156 13.03125 C 37.773438 13.027344 37.761719 13.023438 37.75 13.023438 C 37.648438 12.988281 37.550781 12.953125 37.449219 12.921875 C 37.429688 12.914062 37.410156 12.910156 37.390625 12.902344 C 37.257812 12.859375 37.125 12.8125 36.992188 12.773438 Z M 37.542969 13.371094 C 37.597656 13.390625 37.65625 13.414062 37.714844 13.433594 L 36.824219 16.234375 C 35.398438 15.742188 34.027344 15.160156 32.714844 14.496094 C 34.453125 13.382812 36.109375 12.984375 37.542969 13.371094 Z M 38.089844 13.570312 C 38.125 13.582031 38.15625 13.597656 38.191406 13.609375 C 39.117188 14.042969 39.925781 14.839844 40.585938 16.03125 C 40.816406 16.453125 41.023438 16.914062 41.203125 17.410156 C 39.90625 17.15625 38.613281 16.824219 37.324219 16.402344 C 37.269531 16.382812 37.210938 16.363281 37.15625 16.34375 Z M 35.820312 12.917969 C 34.769531 13.078125 33.644531 13.574219 32.488281 14.378906 C 31.660156 13.953125 30.851562 13.492188 30.070312 13 C 32.015625 12.59375 33.957031 12.558594 35.820312 12.917969 Z M 39.78125 14.34375 C 40.945312 14.988281 42.050781 15.816406 43.066406 16.84375 C 43.382812 17.15625 43.679688 17.488281 43.964844 17.828125 C 43.128906 17.738281 42.292969 17.617188 41.457031 17.460938 C 41.25 16.816406 41 16.222656 40.710938 15.6875 C 40.429688 15.167969 40.117188 14.71875 39.78125 14.34375 Z M 33.304688 12.304688 C 32.113281 12.308594 30.902344 12.460938 29.695312 12.761719 C 29.328125 12.523438 28.96875 12.277344 28.613281 12.027344 C 30.179688 11.96875 31.75 12.058594 33.304688 12.304688 Z M 42.277344 15.640625 C 43.128906 16.164062 43.953125 16.75 44.75 17.390625 C 44.976562 17.574219 45.199219 17.761719 45.417969 17.953125 C 45.078125 17.933594 44.738281 17.90625 44.402344 17.875 C 44.027344 17.394531 43.628906 16.9375 43.203125 16.503906 C 42.902344 16.199219 42.59375 15.910156 42.277344 15.640625 Z M 28.121094 12.050781 C 28.507812 12.332031 28.898438 12.601562 29.296875 12.867188 C 27.886719 13.253906 26.480469 13.835938 25.109375 14.609375 C 24.421875 14.050781 23.761719 13.46875 23.121094 12.867188 C 24.753906 12.421875 26.433594 12.148438 28.121094 12.050781 Z M 45.792969 18.285156 C 47.277344 19.628906 48.554688 21.121094 49.621094 22.71875 C 48.789062 22.757812 47.949219 22.765625 47.109375 22.746094 C 46.480469 21.097656 45.664062 19.566406 44.65625 18.207031 C 45.035156 18.238281 45.414062 18.265625 45.792969 18.285156 Z M 29.644531 13.097656 C 29.644531 13.09375 29.644531 13.097656 29.644531 13.097656 C 30.472656 13.628906 31.324219 14.125 32.207031 14.582031 C 31.207031 15.320312 30.183594 16.285156 29.160156 17.464844 C 27.804688 16.640625 26.515625 15.738281 25.304688 14.765625 C 26.726562 14.003906 28.183594 13.445312 29.644531 13.097656 Z M 44.246094 18.171875 C 45.328125 19.527344 46.207031 21.070312 46.882812 22.742188 C 45.34375 22.695312 43.804688 22.546875 42.269531 22.300781 C 42.179688 20.628906 41.945312 19.109375 41.558594 17.792969 C 42.453125 17.957031 43.351562 18.082031 44.246094 18.171875 Z M 32.417969 14.691406 C 33.789062 15.394531 35.226562 16.011719 36.726562 16.527344 L 35.460938 20.511719 C 34.367188 20.105469 33.28125 19.648438 32.210938 19.128906 C 31.199219 18.636719 30.214844 18.101562 29.269531 17.53125 C 30.324219 16.347656 31.386719 15.398438 32.417969 14.691406 Z M 41.324219 17.746094 C 41.761719 19.058594 42.03125 20.589844 42.148438 22.28125 C 39.988281 21.925781 37.835938 21.371094 35.71875 20.605469 L 37.054688 16.636719 C 37.113281 16.65625 37.167969 16.675781 37.222656 16.691406 C 38.582031 17.136719 39.953125 17.484375 41.324219 17.746094 Z M 22.933594 12.917969 C 23.589844 13.53125 24.269531 14.117188 24.972656 14.683594 C 23.363281 15.609375 21.800781 16.800781 20.332031 18.242188 C 19.246094 17.328125 18.210938 16.363281 17.230469 15.351562 C 19.03125 14.289062 20.949219 13.476562 22.933594 12.917969 Z M 49.707031 22.847656 C 50.726562 24.390625 51.546875 26.035156 52.167969 27.738281 C 50.925781 27.886719 49.675781 27.980469 48.421875 28.019531 C 48.179688 26.214844 47.757812 24.480469 47.152344 22.859375 C 48.003906 22.882812 48.859375 22.878906 49.707031 22.847656 Z M 25.167969 14.839844 C 26.398438 15.816406 27.707031 16.726562 29.085938 17.554688 C 27.980469 18.839844 26.882812 20.375 25.816406 22.140625 C 23.90625 21.003906 22.109375 19.726562 20.4375 18.332031 C 21.929688 16.902344 23.523438 15.734375 25.167969 14.839844 Z M 46.925781 22.851562 C 47.570312 24.472656 48.023438 26.210938 48.289062 28.023438 C 46.238281 28.078125 44.171875 27.984375 42.109375 27.730469 C 42.300781 25.847656 42.359375 24.050781 42.277344 22.398438 C 43.824219 22.648438 45.378906 22.800781 46.925781 22.851562 Z M 29.191406 17.617188 C 30.117188 18.167969 31.066406 18.683594 32.054688 19.160156 C 33.167969 19.703125 34.296875 20.179688 35.433594 20.597656 L 33.769531 25.816406 C 32.828125 25.496094 31.886719 25.136719 30.953125 24.742188 C 29.183594 23.992188 27.484375 23.132812 25.875 22.175781 C 26.957031 20.410156 28.070312 18.882812 29.191406 17.617188 Z M 42.15625 22.378906 C 42.265625 24.027344 42.222656 25.828125 42.042969 27.722656 C 39.332031 27.386719 36.621094 26.777344 33.945312 25.878906 L 35.691406 20.691406 C 37.820312 21.457031 39.984375 22.019531 42.15625 22.378906 Z M 17.035156 15.46875 C 18.035156 16.484375 19.089844 17.457031 20.195312 18.375 C 18.988281 19.578125 17.84375 20.957031 16.792969 22.5 C 16.632812 22.738281 16.476562 22.976562 16.324219 23.214844 C 14.859375 21.996094 13.480469 20.699219 12.191406 19.339844 C 13.65625 17.816406 15.289062 16.523438 17.035156 15.46875 Z M 52.222656 27.886719 C 52.914062 29.820312 53.347656 31.828125 53.519531 33.859375 C 51.875 34.082031 50.214844 34.222656 48.550781 34.277344 C 48.730469 32.191406 48.695312 30.128906 48.441406 28.152344 C 49.707031 28.117188 50.972656 28.03125 52.222656 27.886719 Z M 20.300781 18.460938 C 21.996094 19.851562 23.8125 21.125 25.742188 22.261719 C 25.242188 23.105469 24.746094 23.996094 24.261719 24.941406 C 23.777344 25.882812 23.320312 26.84375 22.890625 27.816406 C 22.03125 27.316406 21.183594 26.78125 20.34375 26.222656 C 18.960938 25.292969 17.644531 24.308594 16.386719 23.265625 C 16.527344 23.050781 16.671875 22.832031 16.816406 22.617188 C 17.886719 21.054688 19.058594 19.667969 20.300781 18.460938 Z M 48.308594 28.15625 C 48.585938 30.132812 48.640625 32.191406 48.472656 34.277344 C 46.003906 34.355469 43.527344 34.246094 41.058594 33.941406 C 41.542969 31.851562 41.894531 29.796875 42.097656 27.835938 C 44.171875 28.09375 46.246094 28.203125 48.308594 28.15625 Z M 25.800781 22.292969 C 27.378906 23.222656 29.039062 24.054688 30.773438 24.789062 C 31.753906 25.203125 32.746094 25.578125 33.738281 25.914062 L 31.84375 31.867188 C 28.789062 30.851562 25.800781 29.507812 22.925781 27.835938 C 23.34375 26.890625 23.785156 25.960938 24.257812 25.050781 C 24.757812 24.078125 25.273438 23.15625 25.800781 22.292969 Z M 42.035156 27.828125 C 41.84375 29.785156 41.503906 31.84375 41.023438 33.9375 C 37.957031 33.558594 34.90625 32.882812 31.921875 31.894531 L 33.914062 25.976562 C 36.59375 26.871094 39.3125 27.480469 42.035156 27.828125 Z M 42.035156 27.828125 " fill-opacity="1" fill-rule="nonzero"/></g></g></g></g><g clip-path="url(#46319ac6b1)"><path fill="#fff4f4" d="M 54.433594 24.4375 C 54.433594 23.367188 54.015625 22.359375 53.257812 21.601562 L 43.121094 11.449219 C 42.363281 10.691406 41.355469 10.273438 40.285156 10.273438 L 13.347656 10.273438 C 11.136719 10.273438 9.335938 12.070312 9.335938 14.277344 L 9.335938 40.808594 C 9.339844 43.019531 11.136719 44.820312 13.347656 44.820312 L 50.425781 44.820312 C 52.636719 44.820312 54.433594 43.019531 54.433594 40.804688 Z M 6.761719 40.808594 L 6.761719 14.277344 C 6.761719 10.648438 9.714844 7.691406 13.347656 7.691406 L 40.285156 7.691406 C 42.046875 7.691406 43.699219 8.378906 44.941406 9.625 L 55.082031 19.777344 C 56.324219 21.019531 57.011719 22.675781 57.011719 24.4375 L 57.011719 40.804688 C 57.011719 44.441406 54.054688 47.398438 50.425781 47.398438 L 13.347656 47.398438 C 9.71875 47.398438 6.761719 44.445312 6.761719 40.808594 " fill-opacity="1" fill-rule="nonzero"/></g><g fill="#fff4f4" fill-opacity="1"><g transform="translate(13.120631, 57.156086)"><g><path d="M 1.625 0 C 2.964844 0 3.546875 -0.660156 3.546875 -1.761719 C 3.546875 -2.878906 2.945312 -3.53125 1.625 -3.53125 L 0.445312 -3.53125 C 0.382812 -3.53125 0.347656 -3.5 0.347656 -3.4375 L 0.347656 -0.09375 C 0.347656 -0.03125 0.382812 0 0.445312 0 Z M 1.296875 -2.730469 L 1.628906 -2.730469 C 2.292969 -2.730469 2.609375 -2.386719 2.609375 -1.773438 C 2.609375 -1.164062 2.292969 -0.800781 1.628906 -0.800781 L 1.296875 -0.800781 Z M 1.296875 -2.730469 "/></g></g></g><g fill="#fff4f4" fill-opacity="1"><g transform="translate(20.651866, 57.156086)"><g><path d="M 1.195312 0 C 1.257812 0 1.289062 -0.03125 1.289062 -0.09375 L 1.289062 -3.4375 C 1.289062 -3.5 1.257812 -3.53125 1.195312 -3.53125 L 0.445312 -3.53125 C 0.382812 -3.53125 0.347656 -3.5 0.347656 -3.4375 L 0.347656 -0.09375 C 0.347656 -0.03125 0.382812 0 0.445312 0 Z M 1.195312 0 "/></g></g></g><g fill="#fff4f4" fill-opacity="1"><g transform="translate(26.057486, 57.156086)"><g><path d="M 2.632812 -1.328125 C 2.980469 -1.507812 3.175781 -1.882812 3.175781 -2.394531 C 3.175781 -3 2.90625 -3.53125 1.910156 -3.53125 L 0.445312 -3.53125 C 0.382812 -3.53125 0.347656 -3.5 0.347656 -3.4375 L 0.347656 -0.09375 C 0.347656 -0.03125 0.382812 0 0.445312 0 L 1.199219 0 C 1.261719 0 1.292969 -0.03125 1.292969 -0.09375 L 1.292969 -1.203125 L 1.691406 -1.203125 L 2.257812 -0.0703125 C 2.28125 -0.0234375 2.316406 0 2.367188 0 L 3.226562 0 C 3.296875 0 3.324219 -0.046875 3.292969 -0.113281 Z M 1.746094 -2.730469 C 1.933594 -2.730469 2.238281 -2.730469 2.238281 -2.386719 C 2.238281 -2.003906 1.878906 -2.003906 1.746094 -2.003906 L 1.292969 -2.003906 L 1.292969 -2.730469 Z M 1.746094 -2.730469 "/></g></g></g><g fill="#fff4f4" fill-opacity="1"><g transform="translate(33.31756, 57.156086)"><g><path d="M 2.640625 0 C 2.703125 0 2.734375 -0.03125 2.734375 -0.09375 L 2.734375 -0.707031 C 2.734375 -0.769531 2.703125 -0.800781 2.640625 -0.800781 L 1.289062 -0.800781 L 1.289062 -1.214844 L 2.457031 -1.214844 C 2.519531 -1.214844 2.550781 -1.246094 2.550781 -1.308594 L 2.550781 -1.875 C 2.550781 -1.933594 2.519531 -1.96875 2.457031 -1.96875 L 1.289062 -1.96875 L 1.289062 -2.730469 L 2.640625 -2.730469 C 2.703125 -2.730469 2.734375 -2.761719 2.734375 -2.824219 L 2.734375 -3.4375 C 2.734375 -3.5 2.703125 -3.53125 2.640625 -3.53125 L 0.445312 -3.53125 C 0.382812 -3.53125 0.347656 -3.5 0.347656 -3.4375 L 0.347656 -0.09375 C 0.347656 -0.03125 0.382812 0 0.445312 0 Z M 2.640625 0 "/></g></g></g><g fill="#fff4f4" fill-opacity="1"><g transform="translate(40.08817, 57.156086)"><g><path d="M 2.121094 0.09375 C 2.796875 0.09375 3.34375 -0.160156 3.675781 -0.582031 C 3.710938 -0.625 3.695312 -0.664062 3.644531 -0.699219 L 3.023438 -1.113281 C 2.972656 -1.148438 2.933594 -1.140625 2.894531 -1.089844 C 2.722656 -0.878906 2.453125 -0.753906 2.121094 -0.753906 C 1.535156 -0.753906 1.148438 -1.140625 1.148438 -1.765625 C 1.148438 -2.390625 1.535156 -2.777344 2.121094 -2.777344 C 2.453125 -2.777344 2.722656 -2.648438 2.894531 -2.4375 C 2.933594 -2.390625 2.972656 -2.382812 3.023438 -2.414062 L 3.644531 -2.828125 C 3.695312 -2.867188 3.703125 -2.910156 3.664062 -2.957031 C 3.328125 -3.375 2.785156 -3.625 2.121094 -3.625 C 0.96875 -3.625 0.207031 -2.902344 0.207031 -1.765625 C 0.207031 -0.628906 0.96875 0.09375 2.121094 0.09375 Z M 2.121094 0.09375 "/></g></g></g><g fill="#fff4f4" fill-opacity="1"><g transform="translate(47.699835, 57.156086)"><g><path d="M 1.75 0 C 1.8125 0 1.84375 -0.03125 1.84375 -0.09375 L 1.84375 -2.730469 L 2.554688 -2.730469 C 2.617188 -2.730469 2.648438 -2.761719 2.648438 -2.824219 L 2.648438 -3.4375 C 2.648438 -3.5 2.617188 -3.53125 2.554688 -3.53125 L 0.1875 -3.53125 C 0.125 -3.53125 0.09375 -3.5 0.09375 -3.4375 L 0.09375 -2.824219 C 0.09375 -2.761719 0.125 -2.730469 0.1875 -2.730469 L 0.898438 -2.730469 L 0.898438 -0.09375 C 0.898438 -0.03125 0.933594 0 0.992188 0 Z M 1.75 0 "/></g></g></g><g fill="#fff4f4" fill-opacity="1"><g transform="translate(11.093603, 39.243003)"><g><path d="M 1.046875 0 L 1.046875 -23.828125 L 10.59375 -23.828125 L 10.59375 -19.21875 L 5.90625 -19.21875 L 5.90625 -14.59375 L 10.40625 -14.59375 L 10.40625 -10.09375 L 5.90625 -10.09375 L 5.90625 -4.625 L 10.90625 -4.625 L 10.90625 0 Z M 1.046875 0 "/></g></g></g><g fill="#fff4f4" fill-opacity="1"><g transform="translate(25.42649, 39.340033)"><g><path d="M 2.875 0.09375 C 1.945312 0.09375 1.273438 -0.132812 0.859375 -0.59375 C 0.453125 -1.050781 0.25 -1.796875 0.25 -2.828125 L 0.25 -3.828125 L 2.265625 -3.828125 L 2.265625 -2.546875 C 2.265625 -2.035156 2.425781 -1.78125 2.75 -1.78125 C 2.9375 -1.78125 3.0625 -1.832031 3.125 -1.9375 C 3.195312 -2.050781 3.234375 -2.234375 3.234375 -2.484375 C 3.234375 -2.816406 3.191406 -3.09375 3.109375 -3.3125 C 3.035156 -3.53125 2.9375 -3.710938 2.8125 -3.859375 C 2.6875 -4.003906 2.46875 -4.234375 2.15625 -4.546875 L 1.28125 -5.421875 C 0.59375 -6.085938 0.25 -6.828125 0.25 -7.640625 C 0.25 -8.515625 0.445312 -9.179688 0.84375 -9.640625 C 1.25 -10.097656 1.835938 -10.328125 2.609375 -10.328125 C 3.523438 -10.328125 4.1875 -10.082031 4.59375 -9.59375 C 5 -9.101562 5.203125 -8.335938 5.203125 -7.296875 L 3.125 -7.296875 L 3.109375 -8 C 3.109375 -8.132812 3.066406 -8.238281 2.984375 -8.3125 C 2.910156 -8.394531 2.804688 -8.4375 2.671875 -8.4375 C 2.515625 -8.4375 2.394531 -8.390625 2.3125 -8.296875 C 2.238281 -8.210938 2.203125 -8.097656 2.203125 -7.953125 C 2.203125 -7.617188 2.394531 -7.273438 2.78125 -6.921875 L 3.96875 -5.78125 C 4.238281 -5.507812 4.460938 -5.25 4.640625 -5 C 4.828125 -4.757812 4.976562 -4.472656 5.09375 -4.140625 C 5.207031 -3.816406 5.265625 -3.425781 5.265625 -2.96875 C 5.265625 -1.96875 5.078125 -1.207031 4.703125 -0.6875 C 4.335938 -0.164062 3.726562 0.09375 2.875 0.09375 Z M 2.875 0.09375 "/></g></g></g><g fill="#fff4f4" fill-opacity="1"><g transform="translate(34.006853, 39.340033)"><g><path d="M 0.359375 0 L 0.359375 -10.234375 L 2.328125 -10.234375 L 2.328125 0 Z M 0.359375 0 "/></g></g></g><g fill="#fff4f4" fill-opacity="1"><g transform="translate(39.802717, 39.340033)"><g><path d="M 0.453125 0 L 0.453125 -10.234375 L 3.578125 -10.234375 L 4.421875 -3.984375 L 5.28125 -10.234375 L 8.421875 -10.234375 L 8.421875 0 L 6.5625 0 L 6.5625 -7.375 L 5.375 0 L 3.546875 0 L 2.296875 -7.375 L 2.296875 0 Z M 0.453125 0 "/></g></g></g><g fill="#fff4f4" fill-opacity="1"><g transform="translate(79.221273, 36.965607)"><g><path d="M 20.335938 -16.007812 C 20.117188 -16.007812 19.929688 -15.894531 19.84375 -15.675781 L 16.207031 -6.898438 L 12.464844 -15.914062 C 12.394531 -16.101562 12.234375 -16.25 11.976562 -16.25 C 11.683594 -16.25 11.558594 -16.082031 11.484375 -15.914062 L 7.878906 -6.910156 L 4.242188 -15.675781 C 4.160156 -15.894531 3.972656 -16.007812 3.753906 -16.007812 L 0.675781 -16.007812 C 0.355469 -16.007812 0.21875 -15.800781 0.355469 -15.5 L 7.347656 0 C 7.628906 0.605469 8.152344 0.605469 8.402344 0 L 12.039062 -9.046875 L 15.6875 0 C 15.9375 0.605469 16.457031 0.605469 16.738281 0 L 23.734375 -15.5 C 23.867188 -15.800781 23.703125 -16.007812 23.410156 -16.007812 Z M 20.335938 -16.007812 "/></g></g></g><g fill="#fff4f4" fill-opacity="1"><g transform="translate(103.292876, 36.965607)"><g><path d="M 4.355469 0 C 4.628906 0 4.785156 -0.144531 4.785156 -0.425781 L 4.785156 -6.460938 C 4.785156 -7.941406 5.785156 -8.984375 7.179688 -8.984375 C 8.609375 -8.984375 9.371094 -7.921875 9.371094 -6.472656 L 9.371094 -0.425781 C 9.371094 -0.144531 9.515625 0 9.796875 0 L 12.265625 0 C 12.550781 0 12.695312 -0.144531 12.695312 -0.425781 L 12.695312 -7.066406 C 12.695312 -9.160156 11.820312 -11.820312 8.371094 -11.820312 C 6.847656 -11.820312 5.691406 -11.257812 4.785156 -10.359375 L 4.785156 -15.582031 C 4.785156 -15.863281 4.628906 -16.007812 4.355469 -16.007812 L 1.875 -16.007812 C 1.605469 -16.007812 1.449219 -15.863281 1.449219 -15.582031 L 1.449219 -0.425781 C 1.449219 -0.144531 1.605469 0 1.875 0 Z M 4.355469 0 "/></g></g></g><g fill="#fff4f4" fill-opacity="1"><g transform="translate(117.312943, 36.965607)"><g><path d="M 6.765625 -11.820312 C 3.417969 -11.820312 0.957031 -9.484375 0.957031 -5.785156 C 0.957031 -2.023438 3.660156 0.25 6.941406 0.25 C 8.546875 0.25 10.203125 -0.3125 11.609375 -1.4375 C 11.871094 -1.648438 11.914062 -1.867188 11.726562 -2.054688 L 10.476562 -3.628906 C 10.296875 -3.816406 10.132812 -3.824219 9.902344 -3.660156 C 9.003906 -2.960938 7.996094 -2.585938 7.046875 -2.585938 C 5.585938 -2.585938 4.230469 -3.492188 4.160156 -5.285156 L 11.933594 -5.285156 C 12.308594 -5.285156 12.425781 -5.441406 12.425781 -5.828125 C 12.425781 -9.484375 10.132812 -11.820312 6.765625 -11.820312 Z M 6.847656 -9.214844 C 7.804688 -9.214844 8.808594 -8.753906 9.066406 -7.441406 L 4.355469 -7.441406 C 4.730469 -8.777344 5.921875 -9.214844 6.847656 -9.214844 Z M 6.847656 -9.214844 "/></g></g></g><g fill="#fff4f4" fill-opacity="1"><g transform="translate(130.645549, 36.965607)"><g><path d="M 4.355469 0 C 4.628906 0 4.785156 -0.144531 4.785156 -0.425781 L 4.785156 -6.285156 C 4.785156 -7.964844 5.449219 -8.839844 6.796875 -8.839844 C 7.035156 -8.839844 7.410156 -8.796875 7.796875 -8.714844 C 8.066406 -8.652344 8.265625 -8.746094 8.328125 -9.003906 L 8.871094 -11.121094 C 8.933594 -11.371094 8.847656 -11.570312 8.609375 -11.640625 C 8.222656 -11.757812 7.847656 -11.820312 7.535156 -11.820312 C 6.398438 -11.820312 5.179688 -11.328125 4.304688 -10.046875 L 3.941406 -11.203125 C 3.867188 -11.445312 3.710938 -11.570312 3.472656 -11.570312 L 1.867188 -11.570312 C 1.585938 -11.570312 1.4375 -11.421875 1.4375 -11.140625 L 1.449219 -0.425781 C 1.449219 -0.144531 1.605469 0 1.875 0 Z M 4.355469 0 "/></g></g></g><g fill="#fff4f4" fill-opacity="1"><g transform="translate(140.009621, 36.965607)"><g><path d="M 6.765625 -11.820312 C 3.417969 -11.820312 0.957031 -9.484375 0.957031 -5.785156 C 0.957031 -2.023438 3.660156 0.25 6.941406 0.25 C 8.546875 0.25 10.203125 -0.3125 11.609375 -1.4375 C 11.871094 -1.648438 11.914062 -1.867188 11.726562 -2.054688 L 10.476562 -3.628906 C 10.296875 -3.816406 10.132812 -3.824219 9.902344 -3.660156 C 9.003906 -2.960938 7.996094 -2.585938 7.046875 -2.585938 C 5.585938 -2.585938 4.230469 -3.492188 4.160156 -5.285156 L 11.933594 -5.285156 C 12.308594 -5.285156 12.425781 -5.441406 12.425781 -5.828125 C 12.425781 -9.484375 10.132812 -11.820312 6.765625 -11.820312 Z M 6.847656 -9.214844 C 7.804688 -9.214844 8.808594 -8.753906 9.066406 -7.441406 L 4.355469 -7.441406 C 4.730469 -8.777344 5.921875 -9.214844 6.847656 -9.214844 Z M 6.847656 -9.214844 "/></g></g></g><g fill="#fff4f4" fill-opacity="1"><g transform="translate(153.342226, 36.965607)"><g><path d="M 5.847656 0 C 6.160156 0.636719 6.691406 0.636719 7.003906 0 L 12.351562 -11.058594 C 12.488281 -11.359375 12.363281 -11.570312 12.039062 -11.570312 L 9.484375 -11.570312 C 9.246094 -11.570312 9.089844 -11.484375 8.984375 -11.246094 L 6.429688 -4.929688 L 3.804688 -11.246094 C 3.699219 -11.476562 3.542969 -11.570312 3.304688 -11.570312 L 0.792969 -11.570312 C 0.46875 -11.570312 0.34375 -11.359375 0.488281 -11.058594 Z M 5.847656 0 "/></g></g></g><g fill="#fff4f4" fill-opacity="1"><g transform="translate(166.185275, 36.965607)"><g><path d="M 6.765625 -11.820312 C 3.417969 -11.820312 0.957031 -9.484375 0.957031 -5.785156 C 0.957031 -2.023438 3.660156 0.25 6.941406 0.25 C 8.546875 0.25 10.203125 -0.3125 11.609375 -1.4375 C 11.871094 -1.648438 11.914062 -1.867188 11.726562 -2.054688 L 10.476562 -3.628906 C 10.296875 -3.816406 10.132812 -3.824219 9.902344 -3.660156 C 9.003906 -2.960938 7.996094 -2.585938 7.046875 -2.585938 C 5.585938 -2.585938 4.230469 -3.492188 4.160156 -5.285156 L 11.933594 -5.285156 C 12.308594 -5.285156 12.425781 -5.441406 12.425781 -5.828125 C 12.425781 -9.484375 10.132812 -11.820312 6.765625 -11.820312 Z M 6.847656 -9.214844 C 7.804688 -9.214844 8.808594 -8.753906 9.066406 -7.441406 L 4.355469 -7.441406 C 4.730469 -8.777344 5.921875 -9.214844 6.847656 -9.214844 Z M 6.847656 -9.214844 "/></g></g></g><g fill="#fff4f4" fill-opacity="1"><g transform="translate(179.51788, 36.965607)"><g><path d="M 4.355469 0 C 4.628906 0 4.785156 -0.144531 4.785156 -0.425781 L 4.785156 -6.285156 C 4.785156 -7.964844 5.449219 -8.839844 6.796875 -8.839844 C 7.035156 -8.839844 7.410156 -8.796875 7.796875 -8.714844 C 8.066406 -8.652344 8.265625 -8.746094 8.328125 -9.003906 L 8.871094 -11.121094 C 8.933594 -11.371094 8.847656 -11.570312 8.609375 -11.640625 C 8.222656 -11.757812 7.847656 -11.820312 7.535156 -11.820312 C 6.398438 -11.820312 5.179688 -11.328125 4.304688 -10.046875 L 3.941406 -11.203125 C 3.867188 -11.445312 3.710938 -11.570312 3.472656 -11.570312 L 1.867188 -11.570312 C 1.585938 -11.570312 1.4375 -11.421875 1.4375 -11.140625 L 1.449219 -0.425781 C 1.449219 -0.144531 1.605469 0 1.875 0 Z M 4.355469 0 "/></g></g></g><g fill="#fff4f4" fill-opacity="1"><g transform="translate(188.881953, 36.965607)"><g/></g></g><g fill="#fff4f4" fill-opacity="1"><g transform="translate(195.506591, 36.965607)"><g><path d="M 9.546875 -11.570312 C 9.296875 -11.570312 9.140625 -11.484375 9.035156 -11.246094 L 6.585938 -5.734375 L 3.917969 -11.246094 C 3.816406 -11.464844 3.648438 -11.570312 3.417969 -11.570312 L 0.792969 -11.570312 C 0.457031 -11.570312 0.34375 -11.359375 0.480469 -11.058594 L 4.898438 -2.167969 L 1.679688 4.261719 C 1.53125 4.566406 1.667969 4.773438 1.980469 4.773438 L 4.535156 4.773438 C 4.761719 4.773438 4.941406 4.660156 5.035156 4.449219 L 12.519531 -11.058594 C 12.664062 -11.359375 12.519531 -11.570312 12.214844 -11.570312 Z M 9.546875 -11.570312 "/></g></g></g><g fill="#fff4f4" fill-opacity="1"><g transform="translate(208.505881, 36.965607)"><g><path d="M 7.191406 0.25 C 10.851562 0.25 13.507812 -2.25 13.507812 -5.785156 C 13.507812 -9.316406 10.851562 -11.820312 7.191406 -11.820312 C 3.574219 -11.820312 0.917969 -9.316406 0.917969 -5.785156 C 0.917969 -2.25 3.574219 0.25 7.191406 0.25 Z M 7.191406 -2.636719 C 5.417969 -2.636719 4.230469 -4.003906 4.230469 -5.785156 C 4.230469 -7.578125 5.417969 -8.933594 7.191406 -8.933594 C 9.015625 -8.933594 10.195312 -7.578125 10.195312 -5.785156 C 10.195312 -4.003906 9.015625 -2.636719 7.191406 -2.636719 Z M 7.191406 -2.636719 "/></g></g></g><g fill="#fff4f4" fill-opacity="1"><g transform="translate(222.921761, 36.965607)"><g><path d="M 6.609375 0.25 C 9.796875 0.25 11.953125 -1.648438 11.953125 -4.886719 L 11.953125 -11.140625 C 11.953125 -11.421875 11.808594 -11.570312 11.527344 -11.570312 L 9.058594 -11.570312 C 8.777344 -11.570312 8.628906 -11.421875 8.628906 -11.140625 L 8.628906 -5.011719 C 8.628906 -3.753906 7.984375 -2.71875 6.609375 -2.71875 C 5.273438 -2.71875 4.585938 -3.648438 4.585938 -5.011719 L 4.585938 -11.140625 C 4.585938 -11.421875 4.441406 -11.570312 4.160156 -11.570312 L 1.6875 -11.570312 C 1.40625 -11.570312 1.261719 -11.421875 1.261719 -11.140625 L 1.261719 -4.886719 C 1.261719 -1.648438 3.417969 0.25 6.609375 0.25 Z M 6.609375 0.25 "/></g></g></g><g fill="#fff4f4" fill-opacity="1"><g transform="translate(236.150205, 36.965607)"><g/></g></g><g fill="#fff4f4" fill-opacity="1"><g transform="translate(242.774843, 36.965607)"><g><path d="M 11.320312 -11.570312 C 11.078125 -11.570312 10.933594 -11.445312 10.851562 -11.203125 L 10.476562 -10.035156 C 9.515625 -11.164062 8.097656 -11.820312 6.515625 -11.820312 C 3.273438 -11.820312 0.925781 -9.109375 0.925781 -5.785156 C 0.925781 -2.460938 3.273438 -0.0820312 6.515625 -0.0820312 C 7.796875 -0.0820312 9.015625 -0.53125 9.984375 -1.667969 L 9.984375 -0.542969 C 9.984375 1.3125 8.878906 2.023438 7.390625 2.023438 C 6.203125 2.023438 4.878906 1.554688 3.628906 0.863281 C 3.378906 0.71875 3.1875 0.75 3.054688 0.980469 L 2.054688 2.875 C 1.90625 3.105469 1.9375 3.3125 2.179688 3.449219 C 4.003906 4.441406 5.859375 4.980469 7.609375 4.980469 C 11.039062 4.980469 13.339844 3.085938 13.339844 -0.636719 L 13.363281 -11.140625 C 13.363281 -11.421875 13.214844 -11.570312 12.945312 -11.570312 Z M 7.222656 -2.96875 C 5.585938 -2.96875 4.253906 -4.210938 4.253906 -5.953125 C 4.253906 -7.691406 5.585938 -8.933594 7.222656 -8.933594 C 8.847656 -8.933594 10.171875 -7.691406 10.171875 -5.953125 C 10.171875 -4.210938 8.847656 -2.96875 7.222656 -2.96875 Z M 7.222656 -2.96875 "/></g></g></g><g fill="#fff4f4" fill-opacity="1"><g transform="translate(257.586534, 36.965607)"><g><path d="M 7.191406 0.25 C 10.851562 0.25 13.507812 -2.25 13.507812 -5.785156 C 13.507812 -9.316406 10.851562 -11.820312 7.191406 -11.820312 C 3.574219 -11.820312 0.917969 -9.316406 0.917969 -5.785156 C 0.917969 -2.25 3.574219 0.25 7.191406 0.25 Z M 7.191406 -2.636719 C 5.417969 -2.636719 4.230469 -4.003906 4.230469 -5.785156 C 4.230469 -7.578125 5.417969 -8.933594 7.191406 -8.933594 C 9.015625 -8.933594 10.195312 -7.578125 10.195312 -5.785156 C 10.195312 -4.003906 9.015625 -2.636719 7.191406 -2.636719 Z M 7.191406 -2.636719 "/></g></g></g><g fill="#fff4f4" fill-opacity="1"><g transform="translate(272.002414, 36.965607)"><g><path d="M 3.480469 2.679688 C 3.722656 2.679688 3.898438 2.574219 3.972656 2.324219 L 5.585938 -3.304688 C 5.671875 -3.585938 5.523438 -3.773438 5.222656 -3.773438 L 3.167969 -3.773438 C 2.90625 -3.773438 2.761719 -3.648438 2.710938 -3.398438 L 1.574219 2.210938 C 1.5 2.480469 1.65625 2.679688 1.949219 2.679688 Z M 3.480469 2.679688 "/></g></g></g><g fill="#fff4f4" fill-opacity="1"><g transform="translate(278.908287, 36.965607)"><g/></g></g><g fill="#fff4f4" fill-opacity="1"><g transform="translate(285.532925, 36.965607)"><g><path d="M 5.011719 0.25 C 7.273438 0.25 9.691406 -0.605469 9.691406 -3.503906 C 9.691406 -5.441406 8.214844 -6.335938 6.828125 -6.953125 C 5.535156 -7.535156 4.324219 -7.859375 4.324219 -8.535156 C 4.324219 -9.003906 4.742188 -9.203125 5.367188 -9.203125 C 6.046875 -9.203125 6.992188 -8.972656 7.878906 -8.671875 C 8.140625 -8.578125 8.347656 -8.691406 8.421875 -8.953125 L 8.953125 -10.757812 C 9.046875 -11.027344 8.921875 -11.203125 8.683594 -11.277344 C 7.535156 -11.632812 6.328125 -11.820312 5.386719 -11.820312 C 3.179688 -11.820312 1.03125 -10.765625 1.03125 -8.109375 C 1.03125 -6.460938 2.230469 -5.566406 3.492188 -4.898438 C 4.878906 -4.179688 6.367188 -3.804688 6.367188 -3.167969 C 6.367188 -2.511719 5.816406 -2.304688 5.042969 -2.304688 C 4.285156 -2.304688 3.273438 -2.5 2.273438 -2.8125 C 1.992188 -2.898438 1.824219 -2.8125 1.730469 -2.5625 L 1.136719 -0.769531 C 1.050781 -0.53125 1.136719 -0.3125 1.4375 -0.238281 C 2.761719 0.0820312 3.910156 0.25 5.011719 0.25 Z M 5.011719 0.25 "/></g></g></g><g fill="#fff4f4" fill-opacity="1"><g transform="translate(296.136513, 36.965607)"><g><path d="M 6.085938 0.25 C 6.660156 0.25 7.273438 0.207031 7.933594 0.0195312 C 8.203125 -0.0507812 8.296875 -0.261719 8.222656 -0.519531 L 7.773438 -2.273438 C 7.703125 -2.53125 7.515625 -2.625 7.234375 -2.554688 C 6.972656 -2.480469 6.722656 -2.460938 6.515625 -2.460938 C 5.867188 -2.460938 5.441406 -2.773438 5.441406 -3.535156 L 5.441406 -8.953125 L 7.429688 -8.953125 C 7.710938 -8.953125 7.859375 -9.109375 7.859375 -9.378906 L 7.859375 -11.140625 C 7.859375 -11.421875 7.710938 -11.570312 7.429688 -11.570312 L 5.441406 -11.570312 L 5.441406 -15.007812 C 5.441406 -15.28125 5.285156 -15.4375 5.011719 -15.4375 L 2.542969 -15.4375 C 2.261719 -15.4375 2.117188 -15.28125 2.117188 -15.007812 L 2.117188 -11.570312 L 1.167969 -11.570312 C 0.894531 -11.570312 0.738281 -11.421875 0.738281 -11.140625 L 0.738281 -9.378906 C 0.738281 -9.109375 0.894531 -8.953125 1.167969 -8.953125 L 2.117188 -8.953125 L 2.117188 -3.273438 C 2.117188 -0.96875 3.722656 0.25 6.085938 0.25 Z M 6.085938 0.25 "/></g></g></g><g fill="#fff4f4" fill-opacity="1"><g transform="translate(305.167269, 36.965607)"><g><path d="M 5.867188 -11.820312 C 4.554688 -11.820312 3.148438 -11.570312 1.855469 -11.152344 C 1.59375 -11.058594 1.492188 -10.890625 1.574219 -10.609375 L 2.167969 -8.765625 C 2.25 -8.496094 2.460938 -8.421875 2.71875 -8.527344 C 3.691406 -8.910156 4.710938 -9.152344 5.585938 -9.152344 C 6.828125 -9.152344 7.742188 -8.660156 7.742188 -7.335938 L 7.742188 -6.753906 C 6.984375 -6.972656 6.210938 -7.078125 5.480469 -7.078125 C 2.96875 -7.078125 0.949219 -5.828125 0.949219 -3.378906 C 0.949219 -0.980469 2.835938 0.25 4.898438 0.25 C 6.085938 0.25 7.359375 -0.15625 8.253906 -1.335938 L 8.566406 -0.363281 C 8.628906 -0.125 8.796875 0 9.035156 0 L 10.652344 0 C 10.921875 0 11.078125 -0.144531 11.078125 -0.425781 L 11.078125 -7.429688 C 11.078125 -10.652344 8.691406 -11.820312 5.867188 -11.820312 Z M 5.804688 -2.0625 C 4.992188 -2.0625 4.273438 -2.480469 4.273438 -3.410156 C 4.273438 -4.460938 5.179688 -4.867188 6.316406 -4.867188 C 6.773438 -4.867188 7.253906 -4.792969 7.742188 -4.679688 L 7.742188 -4.128906 C 7.742188 -2.5625 6.628906 -2.0625 5.804688 -2.0625 Z M 5.804688 -2.0625 "/></g></g></g><g fill="#fff4f4" fill-opacity="1"><g transform="translate(317.572842, 36.965607)"><g><path d="M 9.546875 -11.570312 C 9.296875 -11.570312 9.140625 -11.484375 9.035156 -11.246094 L 6.585938 -5.734375 L 3.917969 -11.246094 C 3.816406 -11.464844 3.648438 -11.570312 3.417969 -11.570312 L 0.792969 -11.570312 C 0.457031 -11.570312 0.34375 -11.359375 0.480469 -11.058594 L 4.898438 -2.167969 L 1.679688 4.261719 C 1.53125 4.566406 1.667969 4.773438 1.980469 4.773438 L 4.535156 4.773438 C 4.761719 4.773438 4.941406 4.660156 5.035156 4.449219 L 12.519531 -11.058594 C 12.664062 -11.359375 12.519531 -11.570312 12.214844 -11.570312 Z M 9.546875 -11.570312 "/></g></g></g><g fill="#fff4f4" fill-opacity="1"><g transform="translate(330.572132, 36.965607)"><g/></g></g><g fill="#fff4f4" fill-opacity="1"><g transform="translate(337.19677, 36.965607)"><g><path d="M 3.09375 -12.414062 C 4.179688 -12.414062 5.003906 -13.226562 5.003906 -14.320312 C 5.003906 -15.382812 4.179688 -16.226562 3.09375 -16.226562 C 2.03125 -16.226562 1.199219 -15.382812 1.199219 -14.320312 C 1.199219 -13.226562 2.03125 -12.414062 3.09375 -12.414062 Z M 4.355469 0 C 4.628906 0 4.785156 -0.144531 4.785156 -0.425781 L 4.785156 -11.140625 C 4.785156 -11.421875 4.628906 -11.570312 4.355469 -11.570312 L 1.875 -11.570312 C 1.605469 -11.570312 1.449219 -11.421875 1.449219 -11.140625 L 1.449219 -0.425781 C 1.449219 -0.144531 1.605469 0 1.875 0 Z M 4.355469 0 "/></g></g></g><g fill="#fff4f4" fill-opacity="1"><g transform="translate(343.446429, 36.965607)"><g><path d="M 8.371094 -11.820312 C 7.023438 -11.820312 5.566406 -11.328125 4.292969 -10.140625 L 3.960938 -11.203125 C 3.878906 -11.445312 3.730469 -11.570312 3.492188 -11.570312 L 1.875 -11.570312 C 1.605469 -11.570312 1.449219 -11.421875 1.449219 -11.140625 L 1.449219 -0.425781 C 1.449219 -0.144531 1.605469 0 1.875 0 L 4.355469 0 C 4.628906 0 4.785156 -0.144531 4.785156 -0.425781 L 4.785156 -6.460938 C 4.785156 -7.941406 5.785156 -8.984375 7.179688 -8.984375 C 8.597656 -8.984375 9.371094 -7.890625 9.371094 -6.472656 L 9.371094 -0.425781 C 9.371094 -0.144531 9.515625 0 9.796875 0 L 12.265625 0 C 12.550781 0 12.695312 -0.144531 12.695312 -0.425781 L 12.695312 -7.066406 C 12.695312 -9.140625 11.828125 -11.820312 8.371094 -11.820312 Z M 8.371094 -11.820312 "/></g></g></g><g fill="#fff4f4" fill-opacity="1"><g transform="translate(357.466497, 36.965607)"><g/></g></g><g fill="#fff4f4" fill-opacity="1"><g transform="translate(364.091135, 36.965607)"><g><path d="M 6.085938 0.25 C 6.660156 0.25 7.273438 0.207031 7.933594 0.0195312 C 8.203125 -0.0507812 8.296875 -0.261719 8.222656 -0.519531 L 7.773438 -2.273438 C 7.703125 -2.53125 7.515625 -2.625 7.234375 -2.554688 C 6.972656 -2.480469 6.722656 -2.460938 6.515625 -2.460938 C 5.867188 -2.460938 5.441406 -2.773438 5.441406 -3.535156 L 5.441406 -8.953125 L 7.429688 -8.953125 C 7.710938 -8.953125 7.859375 -9.109375 7.859375 -9.378906 L 7.859375 -11.140625 C 7.859375 -11.421875 7.710938 -11.570312 7.429688 -11.570312 L 5.441406 -11.570312 L 5.441406 -15.007812 C 5.441406 -15.28125 5.285156 -15.4375 5.011719 -15.4375 L 2.542969 -15.4375 C 2.261719 -15.4375 2.117188 -15.28125 2.117188 -15.007812 L 2.117188 -11.570312 L 1.167969 -11.570312 C 0.894531 -11.570312 0.738281 -11.421875 0.738281 -11.140625 L 0.738281 -9.378906 C 0.738281 -9.109375 0.894531 -8.953125 1.167969 -8.953125 L 2.117188 -8.953125 L 2.117188 -3.273438 C 2.117188 -0.96875 3.722656 0.25 6.085938 0.25 Z M 6.085938 0.25 "/></g></g></g><g fill="#fff4f4" fill-opacity="1"><g transform="translate(373.121892, 36.965607)"><g><path d="M 7.191406 0.25 C 10.851562 0.25 13.507812 -2.25 13.507812 -5.785156 C 13.507812 -9.316406 10.851562 -11.820312 7.191406 -11.820312 C 3.574219 -11.820312 0.917969 -9.316406 0.917969 -5.785156 C 0.917969 -2.25 3.574219 0.25 7.191406 0.25 Z M 7.191406 -2.636719 C 5.417969 -2.636719 4.230469 -4.003906 4.230469 -5.785156 C 4.230469 -7.578125 5.417969 -8.933594 7.191406 -8.933594 C 9.015625 -8.933594 10.195312 -7.578125 10.195312 -5.785156 C 10.195312 -4.003906 9.015625 -2.636719 7.191406 -2.636719 Z M 7.191406 -2.636719 "/></g></g></g><g fill="#fff4f4" fill-opacity="1"><g transform="translate(387.537772, 36.965607)"><g><path d="M 6.609375 0.25 C 9.796875 0.25 11.953125 -1.648438 11.953125 -4.886719 L 11.953125 -11.140625 C 11.953125 -11.421875 11.808594 -11.570312 11.527344 -11.570312 L 9.058594 -11.570312 C 8.777344 -11.570312 8.628906 -11.421875 8.628906 -11.140625 L 8.628906 -5.011719 C 8.628906 -3.753906 7.984375 -2.71875 6.609375 -2.71875 C 5.273438 -2.71875 4.585938 -3.648438 4.585938 -5.011719 L 4.585938 -11.140625 C 4.585938 -11.421875 4.441406 -11.570312 4.160156 -11.570312 L 1.6875 -11.570312 C 1.40625 -11.570312 1.261719 -11.421875 1.261719 -11.140625 L 1.261719 -4.886719 C 1.261719 -1.648438 3.417969 0.25 6.609375 0.25 Z M 6.609375 0.25 "/></g></g></g><g fill="#fff4f4" fill-opacity="1"><g transform="translate(400.766216, 36.965607)"><g><path d="M 7.273438 0.25 C 9.109375 0.25 10.765625 -0.449219 11.859375 -1.585938 C 12.039062 -1.773438 12.007812 -1.960938 11.789062 -2.15625 L 10.132812 -3.742188 C 9.910156 -3.929688 9.734375 -3.878906 9.535156 -3.679688 C 8.996094 -3.03125 8.191406 -2.636719 7.273438 -2.636719 C 5.492188 -2.636719 4.199219 -4.003906 4.199219 -5.785156 C 4.199219 -7.578125 5.492188 -8.933594 7.273438 -8.933594 C 8.203125 -8.933594 8.996094 -8.527344 9.535156 -7.890625 C 9.734375 -7.679688 9.933594 -7.648438 10.132812 -7.828125 L 11.789062 -9.402344 C 11.996094 -9.578125 12.027344 -9.816406 11.839844 -10.015625 C 10.726562 -11.140625 9.109375 -11.820312 7.273438 -11.820312 C 3.628906 -11.820312 0.917969 -9.316406 0.917969 -5.785156 C 0.917969 -2.25 3.628906 0.25 7.273438 0.25 Z M 7.273438 0.25 "/></g></g></g><g fill="#fff4f4" fill-opacity="1"><g transform="translate(413.51552, 36.965607)"><g><path d="M 4.355469 0 C 4.628906 0 4.785156 -0.144531 4.785156 -0.425781 L 4.785156 -6.460938 C 4.785156 -7.941406 5.785156 -8.984375 7.179688 -8.984375 C 8.609375 -8.984375 9.371094 -7.921875 9.371094 -6.472656 L 9.371094 -0.425781 C 9.371094 -0.144531 9.515625 0 9.796875 0 L 12.265625 0 C 12.550781 0 12.695312 -0.144531 12.695312 -0.425781 L 12.695312 -7.066406 C 12.695312 -9.160156 11.820312 -11.820312 8.371094 -11.820312 C 6.847656 -11.820312 5.691406 -11.257812 4.785156 -10.359375 L 4.785156 -15.582031 C 4.785156 -15.863281 4.628906 -16.007812 4.355469 -16.007812 L 1.875 -16.007812 C 1.605469 -16.007812 1.449219 -15.863281 1.449219 -15.582031 L 1.449219 -0.425781 C 1.449219 -0.144531 1.605469 0 1.875 0 Z M 4.355469 0 "/></g></g></g><g fill="#fff4f4" fill-opacity="1"><g transform="translate(427.535588, 36.965607)"><g><path d="M 3.753906 0.25 C 4.910156 0.25 5.878906 -0.667969 5.878906 -1.875 C 5.878906 -3.042969 4.941406 -4.011719 3.753906 -4.011719 C 2.574219 -4.011719 1.625 -3.023438 1.625 -1.875 C 1.625 -0.699219 2.585938 0.25 3.753906 0.25 Z M 3.753906 0.25 "/></g></g></g></svg>