<svg xmlns="http://www.w3.org/2000/svg" xmlns:xlink="http://www.w3.org/1999/xlink" width="400" zoomAndPan="magnify" viewBox="0 0 300 332.250003" height="443" preserveAspectRatio="xMidYMid meet" version="1.0"><defs><clipPath id="69735b889e"><path d="M 12 0 L 288.460938 0 L 288.460938 276.875 L 12 276.875 Z M 12 0 " clip-rule="nonzero"/></clipPath><clipPath id="efd19f1898"><path d="M 160 245 L 238 245 L 238 331.5 L 160 331.5 Z M 160 245 " clip-rule="nonzero"/></clipPath><clipPath id="3ca4db2d77"><path d="M 230 85 L 295 85 L 295 331.5 L 230 331.5 Z M 230 85 " clip-rule="nonzero"/></clipPath><clipPath id="3282e297a7"><path d="M 0.335938 91 L 200 91 L 200 331.5 L 0.335938 331.5 Z M 0.335938 91 " clip-rule="nonzero"/></clipPath><clipPath id="bfb0aa7a26"><path d="M 0.335938 141 L 130 141 L 130 331.5 L 0.335938 331.5 Z M 0.335938 141 " clip-rule="nonzero"/></clipPath><clipPath id="ef678945e3"><path d="M 57 245 L 148 245 L 148 331.5 L 57 331.5 Z M 57 245 " clip-rule="nonzero"/></clipPath><clipPath id="307d519866"><path d="M 57 227 L 164 227 L 164 331.5 L 57 331.5 Z M 57 227 " clip-rule="nonzero"/></clipPath></defs><g clip-path="url(#69735b889e)"><path fill="#fff4f4" d="M 172.160156 1.738281 C 167.054688 0.925781 161.839844 0.371094 156.550781 0.148438 C 154.480469 0.0390625 152.371094 0 150.261719 0 C 108.796875 0 71.511719 18.382812 46.210938 47.457031 C 25.191406 71.519531 12.394531 102.894531 12.183594 137.21875 C 11.714844 212.84375 72.933594 275.238281 148.558594 276.15625 C 206.800781 276.863281 257.03125 241.296875 277.953125 190.683594 C 284.683594 174.480469 288.382812 156.6875 288.382812 138.082031 C 288.382812 69.394531 237.964844 12.242188 172.160156 1.738281 Z M 141.089844 264.746094 C 77.820312 260.28125 26.949219 208.550781 23.472656 145.21875 C 21.734375 113.574219 31.636719 84.300781 49.253906 61.210938 C 49.375 61.046875 50.816406 61.394531 51.492188 62.402344 C 52.914062 64.523438 49.527344 67.792969 47.597656 73.351562 C 45.363281 79.78125 45.855469 87.023438 47.691406 87.628906 C 48.648438 87.945312 50.085938 86.496094 50.613281 85.816406 C 51.757812 84.335938 51.351562 83.335938 52.425781 81.5625 C 53.3125 80.007812 54.976562 78.453125 55.605469 78.789062 C 56.566406 79.269531 54.050781 83.449219 54.3125 89.738281 C 54.421875 93.027344 55.308594 95.46875 56.125 97.652344 C 57.195312 100.683594 58.527344 104.421875 61.710938 107.566406 C 65.445312 111.300781 67.441406 109.96875 72.363281 114.59375 C 74.472656 116.589844 74.398438 117.070312 76.765625 119.105469 C 78.023438 120.140625 80.539062 122.25 84.273438 124.027344 C 88.453125 125.949219 89.675781 125.394531 90.894531 127.023438 C 92.484375 129.09375 92.410156 132.496094 91.191406 134.9375 C 89.15625 139.117188 84.976562 138.117188 82.867188 142.261719 C 81.238281 145.515625 82.277344 149.214844 82.683594 150.585938 C 83.015625 151.769531 83.753906 154.429688 86.085938 156.503906 C 89.007812 159.128906 91.042969 157.761719 93.222656 159.832031 C 95.554688 162.050781 94.113281 164.457031 95.8125 171.855469 C 96.921875 176.699219 97.515625 179.214844 99.625 181.285156 C 103.136719 184.726562 106.578125 182.765625 109.167969 185.910156 C 110.089844 187.019531 110.683594 188.574219 110.277344 197.414062 C 109.757812 208.140625 108.796875 207.699219 109.351562 211.175781 C 110.164062 216.316406 112.050781 216.207031 114.863281 225.121094 C 115.566406 227.226562 116.453125 230.039062 117.195312 233.921875 C 118.527344 240.953125 117.898438 243.6875 120.300781 246.054688 C 121.78125 247.535156 124.332031 248.753906 126.625 248.164062 C 128.4375 247.71875 130.066406 246.128906 133.246094 237.546875 C 137.058594 227.191406 135.726562 226.785156 138.464844 221.714844 C 141.238281 216.5 143.234375 215.871094 144.972656 210.582031 C 146.378906 206.21875 145.453125 205.367188 146.972656 202.851562 C 149.449219 198.671875 152.925781 199.375 157.992188 195.230469 C 159.363281 194.121094 163.726562 190.570312 165.539062 184.910156 C 167.5 178.625 164.46875 175.664062 167.316406 169.855469 C 168.980469 166.492188 170.273438 166.898438 171.238281 163.9375 C 173.234375 157.910156 169.386719 151.84375 168.535156 150.585938 C 164.910156 145.222656 159.472656 143.335938 158.289062 142.964844 C 152.1875 141.003906 149.820312 143.707031 143.160156 141.152344 C 141.3125 140.449219 136.910156 138.785156 136.539062 135.863281 C 136.207031 133.347656 139.09375 131.980469 138.539062 129.425781 C 138.242188 128.058594 136.910156 127.171875 134.246094 125.433594 C 129.289062 122.214844 127.21875 122.433594 125.296875 119.808594 C 123.890625 117.8125 124.742188 117.257812 123.519531 115.8125 C 120.597656 112.335938 113.644531 112.78125 109.28125 114 C 104.507812 115.296875 102.546875 117.589844 99.144531 116.589844 C 97.664062 116.171875 97.386719 115.582031 96.507812 115.113281 C 96.507812 115.113281 96.0625 114.878906 95.410156 114.703125 C 93.597656 114.21875 89.839844 117.96875 86.054688 118.089844 C 82.289062 118.207031 78.925781 114.726562 78.0625 113.59375 C 77.894531 113.375 77.746094 113.15625 77.746094 113.15625 C 77.351562 112.515625 77.101562 111.632812 76.175781 108.675781 C 73.734375 100.871094 73.511719 100.464844 73.066406 99.945312 C 70.441406 96.914062 67.519531 98.394531 65.855469 95.65625 C 64.300781 93.140625 65.1875 89.332031 66.628906 87 C 68.515625 84.003906 70.773438 84.484375 72.550781 81.007812 C 73.140625 79.859375 72.917969 79.714844 74.25 76.496094 C 75.878906 72.539062 76.394531 72.203125 76.765625 72.054688 C 78.691406 71.316406 81.5 73.722656 82.871094 75.386719 C 84.570312 77.417969 84.273438 78.53125 85.605469 80.082031 C 87.972656 82.929688 92.226562 84.300781 93.300781 83.191406 C 94.078125 82.414062 92.707031 81.007812 92.300781 76.679688 C 92.191406 75.53125 92.042969 73.5 92.523438 71.058594 C 92.671875 70.242188 93.226562 67.875 95.632812 64.546875 C 97.40625 62.03125 101.363281 56.445312 108.355469 54.335938 C 114.089844 52.5625 117.527344 54.300781 119.195312 51.894531 C 120.636719 49.863281 118.417969 47.347656 120.488281 43.90625 C 120.859375 43.3125 121.597656 42.054688 123.003906 41.574219 C 124.445312 41.09375 125.703125 41.6875 127.21875 42.167969 C 129.253906 42.832031 134.25 44.089844 135.433594 42.683594 C 136.765625 41.09375 133.914062 35.101562 129.109375 32.070312 C 128.367188 31.589844 123.375 28.519531 117.492188 30.367188 C 116.679688 30.589844 112.203125 31.996094 110.167969 35.953125 C 109.167969 37.914062 109.6875 38.726562 108.761719 39.6875 C 105.691406 42.882812 94.6875 39.917969 94.113281 35.765625 C 93.675781 32.582031 99.488281 29.371094 100.570312 28.773438 C 104.667969 26.511719 109.039062 26.308594 112.015625 26.171875 C 115.28125 26.019531 114.847656 26.472656 116.902344 26.222656 C 121.789062 25.636719 125.714844 23.046875 129.21875 20.304688 C 131.769531 18.308594 133.804688 15.941406 136.023438 16.496094 C 137.503906 16.867188 138.429688 18.273438 139.132812 19.417969 C 141.164062 22.5625 140.316406 24.558594 141.644531 25.449219 C 143.496094 26.59375 147.636719 24.523438 149.96875 21.417969 C 152.261719 18.417969 151.746094 15.867188 152.707031 11.28125 C 152.707031 11.242188 152.707031 11.207031 152.742188 11.132812 C 160.28125 11.257812 167.660156 12.066406 174.832031 13.476562 C 181.867188 14.859375 187.820312 19.515625 190.761719 26.050781 L 190.804688 26.148438 C 191.285156 27.222656 194.023438 33.402344 191.988281 35.175781 C 189.992188 36.914062 184.925781 32.957031 183.074219 34.878906 C 182.003906 35.988281 182.335938 38.800781 183.777344 40.390625 C 186.144531 42.945312 190.179688 40.6875 192.507812 43.277344 C 193.582031 44.496094 193.617188 46.050781 193.691406 48.195312 C 193.875 52.929688 191.621094 54.855469 192.804688 57.332031 C 193.46875 58.703125 194.765625 59.332031 195.800781 59.847656 C 199.683594 61.699219 205.308594 60.664062 208.046875 57.445312 C 210.300781 54.746094 208.636719 52.894531 210.855469 49.011719 C 213.113281 45.054688 217.773438 41.871094 219.992188 42.980469 C 222.433594 44.238281 219.917969 49.824219 223.507812 53.117188 C 225.132812 54.597656 227.207031 54.855469 230.3125 55.226562 C 235.34375 55.816406 237.007812 54.300781 240.449219 55.707031 C 241.300781 56.078125 243.222656 56.890625 244.554688 58.925781 C 244.738281 59.21875 246.773438 62.4375 245.554688 65.359375 C 244.183594 68.6875 239.5625 69.242188 236.824219 69.578125 C 235.046875 69.761719 228.945312 70.5 226.910156 67.359375 C 225.394531 65.0625 227.28125 62.625 225.613281 60.921875 C 224.800781 60.144531 223.65625 59.960938 219.695312 60.21875 C 215.074219 60.550781 212.78125 60.738281 210.265625 61.441406 C 205.714844 62.734375 195.136719 65.695312 193.914062 72.683594 C 193.285156 76.308594 195.246094 80.636719 197.835938 83.117188 C 199.980469 85.1875 201.535156 84.964844 202.71875 87.113281 C 204.714844 90.664062 202.679688 95.25 202.421875 95.839844 C 200.460938 100.207031 196.875 101.203125 197.316406 103.460938 C 197.578125 104.867188 199.242188 105.644531 201.015625 106.457031 C 206.15625 108.863281 209.671875 107.125 210.855469 109.082031 C 211.890625 110.785156 209.375 112.449219 210.265625 116 C 210.558594 117.148438 210.820312 117.035156 212.445312 120.21875 C 214.480469 124.101562 214.039062 124.25 214.851562 125.136719 C 215.402344 125.738281 219.671875 128.121094 224.910156 126.210938 C 229.125 124.671875 229.871094 121.855469 232.125 122.328125 C 233.976562 122.710938 233.875 124.601562 235.933594 126.136719 C 239.855469 129.058594 245.550781 124.621094 247.476562 126.726562 C 249.585938 129.09375 243.183594 135.457031 245.847656 140.453125 C 247.105469 142.78125 249.289062 142.964844 249.585938 145.371094 C 249.769531 147.074219 248.808594 147.886719 247.660156 151.105469 C 247.660156 151.105469 246.808594 153.472656 246.253906 156.726562 C 245.035156 163.902344 248.882812 166.34375 247.660156 172.964844 C 247.511719 173.855469 246.996094 176.109375 246.253906 178.664062 C 245.921875 179.882812 245.589844 180.957031 245.070312 182.398438 C 244.035156 185.101562 243.628906 185.285156 242.964844 187.207031 C 242.335938 188.945312 242.039062 190.242188 241.632812 192.609375 C 240.707031 198.121094 240.226562 200.894531 241.003906 203.078125 C 241.742188 205.1875 243.851562 208.773438 246.664062 208.957031 C 250.769531 209.253906 252.433594 202.078125 258.203125 196.640625 C 260.3125 194.644531 262.640625 193.347656 265.007812 192.535156 C 243.363281 237.976562 195.492188 268.582031 141.089844 264.746094 Z M 141.089844 264.746094 " fill-opacity="1" fill-rule="nonzero"/></g><path fill="#fab587" d="M 238.089844 123.066406 L 267.367188 123.085938 L 264.160156 12.941406 C 264.484375 0.320312 249.503906 2.75 249.503906 2.75 C 238.765625 3.761719 240.433594 15.09375 240.433594 15.09375 L 238.089844 123.066406 " fill-opacity="1" fill-rule="nonzero"/><path fill="#f7aa7b" d="M 246.550781 19.234375 L 240.34375 19.230469 L 240.433594 15.09375 C 240.433594 15.09375 240.335938 14.457031 240.339844 13.46875 C 240.339844 10.296875 241.3125 3.523438 249.503906 2.75 C 249.503906 2.75 250.65625 2.5625 252.304688 2.5625 C 254.523438 2.5625 257.65625 2.898438 260.148438 4.464844 C 259.566406 4.378906 259.007812 4.339844 258.472656 4.339844 C 250.757812 4.339844 247.808594 12.636719 246.550781 19.234375 " fill-opacity="1" fill-rule="nonzero"/><path fill="#fab587" d="M 179.925781 157.289062 L 202.097656 142.726562 L 144.925781 60.941406 C 138.894531 51.226562 128.765625 60.519531 128.765625 60.519531 C 121.140625 66.640625 128.035156 74.382812 128.035156 74.382812 L 179.925781 157.289062 " fill-opacity="1" fill-rule="nonzero"/><path fill="#f7aa7b" d="M 133.207031 82.644531 L 128.035156 74.382812 C 128.035156 74.382812 125.179688 71.175781 125.175781 67.257812 C 125.175781 65.089844 126.050781 62.699219 128.765625 60.519531 C 128.796875 60.492188 130.644531 58.808594 133.222656 57.632812 L 133.21875 60.96875 C 132.078125 63.683594 132.375 66.976562 133.214844 70.101562 L 133.207031 82.125 L 133.207031 82.644531 " fill-opacity="1" fill-rule="nonzero"/><path fill="#fab587" d="M 179.90625 190.625 L 202.082031 176.058594 L 144.90625 94.273438 C 138.878906 84.5625 128.746094 93.851562 128.746094 93.851562 C 121.121094 99.972656 128.015625 107.714844 128.015625 107.714844 L 179.90625 190.625 " fill-opacity="1" fill-rule="nonzero"/><path fill="#f7aa7b" d="M 133.1875 115.976562 L 128.015625 107.714844 C 128.015625 107.714844 125.15625 104.507812 125.152344 100.59375 C 125.152344 98.421875 126.027344 96.035156 128.746094 93.851562 C 128.785156 93.820312 130.628906 92.140625 133.199219 90.96875 L 133.199219 94.300781 C 132.058594 97.019531 132.355469 100.3125 133.195312 103.433594 L 133.1875 115.976562 " fill-opacity="1" fill-rule="nonzero"/><path fill="#fab587" d="M 177.152344 236.976562 L 199.324219 222.410156 L 142.148438 140.625 C 136.121094 130.914062 125.988281 140.207031 125.988281 140.207031 C 118.363281 146.324219 125.257812 154.070312 125.257812 154.070312 L 177.152344 236.976562 " fill-opacity="1" fill-rule="nonzero"/><path fill="#f7aa7b" d="M 129.90625 161.492188 L 129.222656 160.40625 C 128.777344 159.089844 128.109375 158.179688 128.109375 158.179688 L 127.726562 158.015625 L 125.257812 154.070312 C 125.257812 154.070312 122.402344 150.863281 122.398438 146.945312 C 122.398438 144.773438 123.273438 142.386719 125.988281 140.207031 C 126.03125 140.167969 129.273438 137.210938 133.171875 136.40625 L 133.171875 137.21875 C 127.292969 141.53125 130.109375 150.175781 132.617188 155.710938 L 129.90625 161.492188 " fill-opacity="1" fill-rule="nonzero"/><g clip-path="url(#efd19f1898)"><path fill="#fab587" d="M 193.617188 270.335938 L 193.589844 331.855469 L 235.113281 331.855469 L 237.683594 245.285156 L 160.824219 245.238281 C 160.824219 245.238281 177.566406 263.058594 193.617188 270.335938 " fill-opacity="1" fill-rule="nonzero"/></g><path fill="#293347" d="M 256.101562 238.089844 C 256.097656 242.070312 252.875 245.289062 248.898438 245.289062 L 140.308594 245.226562 C 136.332031 245.226562 133.109375 241.996094 133.109375 238.019531 L 133.238281 26.371094 C 133.242188 22.390625 136.46875 19.164062 140.441406 19.167969 L 249.035156 19.234375 C 253.011719 19.234375 256.230469 22.464844 256.230469 26.441406 L 256.101562 238.089844 " fill-opacity="1" fill-rule="nonzero"/><path fill="#6bcee2" d="M 256.105469 232.609375 L 133.117188 232.535156 L 133.234375 33.328125 L 256.226562 33.40625 L 256.105469 232.609375 " fill-opacity="1" fill-rule="nonzero"/><path fill="#a5e1ee" d="M 256.105469 232.609375 L 157.527344 232.550781 C 159.398438 230.65625 161.367188 228.835938 163.40625 227.082031 C 163.402344 227.085938 163.394531 227.089844 163.386719 227.09375 C 171.773438 219.882812 181.359375 213.832031 190.5 208.613281 C 191.855469 207.835938 194.035156 207.039062 195.878906 206.042969 C 196.59375 205.65625 197.257812 205.238281 197.800781 204.785156 C 197.804688 204.785156 197.804688 204.78125 197.808594 204.78125 C 197.808594 204.78125 197.808594 204.78125 197.8125 204.777344 C 197.8125 204.777344 197.816406 204.773438 197.816406 204.769531 C 197.820312 204.765625 197.824219 204.765625 197.828125 204.761719 C 199.132812 203.660156 199.746094 202.328125 198.722656 200.625 C 198.714844 200.609375 198.707031 200.597656 198.695312 200.582031 C 198.6875 200.566406 198.675781 200.550781 198.667969 200.535156 C 198.660156 200.527344 198.65625 200.519531 198.652344 200.511719 C 195.75 195.816406 189.292969 193.589844 183.621094 193.589844 C 183.617188 193.589844 183.613281 193.589844 183.609375 193.589844 C 181.957031 193.589844 180.375 193.777344 178.960938 194.144531 C 178.960938 194.144531 163.378906 198.140625 148.964844 210.097656 C 148.964844 210.097656 143.917969 215.992188 140.164062 216 C 140.160156 216 140.160156 216 140.15625 216 C 139.476562 216 138.84375 215.808594 138.285156 215.355469 C 138.285156 215.355469 136.058594 214.664062 136.058594 210.917969 C 136.058594 208.953125 136.675781 206.140625 138.558594 202.140625 L 145.085938 188.136719 L 167.089844 131.152344 L 167.589844 131.65625 C 173.242188 126.003906 180.359375 122.691406 187.730469 121.714844 L 256.105469 232.609375 M 133.164062 154.550781 L 133.234375 33.328125 L 169.175781 91.613281 C 168.917969 91.59375 168.65625 91.578125 168.390625 91.578125 C 165.222656 91.578125 161.410156 93.359375 158.621094 100.316406 L 133.164062 154.550781 M 170.765625 121.632812 L 175.199219 110.152344 C 175.199219 110.152344 176.480469 107.777344 177.269531 104.746094 L 184.378906 116.277344 C 179.625 117.21875 175.003906 119.003906 170.765625 121.632812 " fill-opacity="1" fill-rule="nonzero"/><path fill="#181e28" d="M 207.503906 27.378906 C 207.503906 28.324219 206.738281 29.089844 205.796875 29.089844 L 178.964844 29.074219 C 178.019531 29.074219 177.253906 28.308594 177.253906 27.359375 C 177.253906 26.410156 178.023438 25.644531 178.96875 25.648438 L 205.796875 25.664062 C 206.738281 25.664062 207.503906 26.433594 207.503906 27.378906 " fill-opacity="1" fill-rule="nonzero"/><path fill="#181e28" d="M 212.214844 27.382812 C 212.214844 28.328125 211.449219 29.09375 210.5 29.09375 C 209.554688 29.09375 208.789062 28.324219 208.789062 27.378906 C 208.789062 26.433594 209.558594 25.664062 210.503906 25.664062 C 211.453125 25.664062 212.21875 26.4375 212.214844 27.382812 " fill-opacity="1" fill-rule="nonzero"/><path fill="#ffffff" d="M 247.957031 223.277344 L 243.996094 223.273438 L 244.109375 42.59375 L 227.542969 42.585938 L 227.546875 38.613281 L 248.070312 38.628906 L 247.957031 223.277344 " fill-opacity="1" fill-rule="nonzero"/><path fill="#161821" d="M 167.589844 131.65625 L 163.414062 127.46875 C 179.398438 111.492188 205.386719 111.507812 221.347656 127.503906 L 217.171875 131.683594 C 203.511719 117.996094 181.269531 117.980469 167.589844 131.65625 " fill-opacity="1" fill-rule="nonzero"/><path fill="#161821" d="M 207.792969 141.066406 C 199.292969 132.558594 185.460938 132.550781 176.964844 141.042969 L 172.785156 136.863281 C 183.589844 126.066406 201.167969 126.078125 211.96875 136.886719 L 207.792969 141.066406 " fill-opacity="1" fill-rule="nonzero"/><path fill="#161821" d="M 198.40625 150.445312 C 195.078125 147.113281 189.660156 147.109375 186.335938 150.433594 L 182.164062 146.246094 C 187.792969 140.621094 196.957031 140.628906 202.582031 146.265625 L 198.40625 150.445312 " fill-opacity="1" fill-rule="nonzero"/><g clip-path="url(#3ca4db2d77)"><path fill="#fab587" d="M 233.410156 191.550781 C 229.851562 204.898438 229.195312 219.058594 232.132812 232.59375 L 235.023438 331.855469 L 282.453125 331.855469 L 275.921875 241.949219 L 291.507812 191.574219 C 299.378906 176.550781 291.191406 159.152344 291.191406 159.152344 L 245.132812 85.445312 C 245.132812 85.445312 223.386719 98.582031 238.089844 123.066406 C 247.769531 140.652344 252.707031 157.335938 243.164062 169.992188 C 238.15625 176.636719 235.570312 183.433594 233.410156 191.550781 " fill-opacity="1" fill-rule="nonzero"/></g><g clip-path="url(#3282e297a7)"><path fill="#fab587" d="M 70.058594 331.855469 C 75.175781 319.546875 78.636719 311.265625 78.636719 311.265625 C 84.3125 294.726562 89.480469 280.160156 89.480469 280.160156 L 110.75 273.117188 C 130.15625 268.789062 147.015625 245.804688 147.015625 245.804688 C 156.851562 229.621094 174.371094 217.820312 190.5 208.613281 C 193.65625 206.8125 201.269531 204.875 198.722656 200.625 C 195.023438 194.472656 185.269531 192.492188 178.960938 194.144531 C 178.960938 194.144531 163.378906 198.140625 148.964844 210.097656 C 148.964844 210.097656 141.929688 218.320312 138.285156 215.355469 C 138.285156 215.355469 133.097656 213.742188 138.558594 202.140625 L 145.085938 188.136719 L 175.199219 110.152344 C 175.199219 110.152344 181.769531 98.007812 174.28125 93.507812 C 174.28125 93.507812 164.316406 86.101562 158.621094 100.316406 L 129.597656 162.140625 C 129.417969 159.964844 128.109375 158.179688 128.109375 158.179688 L 116.003906 153.078125 C 110.414062 150.722656 107.015625 159.769531 107.015625 159.769531 L 106.867188 160.140625 L 106.734375 160.085938 L 107.679688 158.289062 C 109.171875 155.140625 106.628906 151.679688 106.628906 151.679688 L 94.523438 146.578125 C 90.546875 144.90625 87.683594 149 86.363281 151.503906 L 86.074219 151.382812 L 86.074219 151.378906 C 86.328125 148.667969 84.363281 146.242188 84.363281 146.242188 L 72.023438 141.738281 C 66.332031 139.65625 63.371094 148.859375 63.371094 148.859375 L 60.898438 155.972656 L 51.652344 173.660156 C 51.652344 173.660156 31.859375 208.972656 29.433594 242.96875 L 29.050781 252.621094 L 0.617188 331.855469 L 70.058594 331.855469 " fill-opacity="1" fill-rule="nonzero"/></g><path fill="#a5d5d9" d="M 140.15625 216 C 140.160156 216 140.160156 216 140.164062 216 C 140.160156 216 140.160156 216 140.15625 216 M 140.15625 216 C 139.476562 216 138.84375 215.808594 138.285156 215.355469 C 138.84375 215.808594 139.476562 216 140.15625 216 " fill-opacity="1" fill-rule="nonzero"/><path fill="#a5d5d9" d="M 195.878906 206.042969 C 196.59375 205.65625 197.257812 205.238281 197.800781 204.785156 C 197.257812 205.238281 196.59375 205.65625 195.878906 206.042969 M 197.808594 204.78125 C 197.808594 204.78125 197.808594 204.78125 197.8125 204.777344 C 197.808594 204.78125 197.808594 204.78125 197.808594 204.78125 M 198.695312 200.582031 C 198.6875 200.566406 198.675781 200.550781 198.667969 200.535156 C 198.675781 200.550781 198.6875 200.566406 198.695312 200.582031 M 198.652344 200.511719 C 195.75 195.816406 189.292969 193.589844 183.621094 193.589844 C 189.292969 193.589844 195.75 195.816406 198.652344 200.511719 " fill-opacity="1" fill-rule="nonzero"/><path fill="#f9ab7c" d="M 123.671875 226.34375 C 124.765625 224.824219 125.871094 223.296875 126.640625 221.613281 C 127.894531 218.878906 129.257812 216.230469 130.34375 213.417969 C 132.464844 207.925781 134.160156 202.28125 136.03125 196.695312 C 139.925781 185.078125 145.203125 173.949219 149.660156 162.535156 C 155.085938 148.636719 161.457031 135.035156 166.171875 120.867188 C 167.984375 115.414062 175.847656 94.035156 165.585938 92.089844 C 166.546875 91.726562 167.5 91.585938 168.394531 91.585938 C 171.6875 91.585938 174.28125 93.507812 174.28125 93.507812 C 177 95.144531 177.867188 97.785156 177.867188 100.492188 C 177.863281 105.226562 175.199219 110.152344 175.199219 110.152344 L 170.765625 121.632812 L 167.089844 131.152344 L 145.085938 188.136719 L 138.558594 202.140625 C 136.675781 206.140625 136.058594 208.953125 136.058594 210.917969 C 136.058594 214.664062 138.285156 215.355469 138.285156 215.355469 C 138.84375 215.808594 139.476562 216 140.15625 216 C 140.160156 216 140.160156 216 140.164062 216 C 143.917969 215.996094 148.964844 210.097656 148.964844 210.097656 C 163.378906 198.140625 178.960938 194.144531 178.960938 194.144531 C 180.375 193.777344 181.957031 193.589844 183.609375 193.589844 C 183.613281 193.589844 183.617188 193.589844 183.621094 193.589844 C 189.292969 193.589844 195.75 195.816406 198.652344 200.511719 C 198.65625 200.519531 198.660156 200.527344 198.667969 200.535156 C 198.675781 200.550781 198.6875 200.566406 198.695312 200.582031 C 198.707031 200.597656 198.714844 200.609375 198.722656 200.625 C 199.746094 202.328125 199.132812 203.660156 197.828125 204.761719 C 197.824219 204.765625 197.820312 204.765625 197.816406 204.769531 C 197.816406 204.773438 197.8125 204.777344 197.8125 204.777344 C 197.808594 204.78125 197.808594 204.78125 197.808594 204.78125 C 197.804688 204.78125 197.804688 204.785156 197.800781 204.785156 C 197.257812 205.238281 196.59375 205.65625 195.878906 206.042969 C 195.199219 203.476562 193.441406 201.226562 190.660156 199.707031 C 187.996094 198.25 185.253906 197.660156 182.5 197.660156 C 178.691406 197.660156 174.855469 198.78125 171.140625 200.285156 C 166.398438 202.207031 161.886719 204.621094 157.605469 207.417969 C 153.203125 210.289062 149.535156 214.023438 145.425781 217.265625 C 141.125 220.664062 136.851562 222.640625 131.523438 223.835938 C 128.832031 224.4375 126.082031 225.039062 123.671875 226.34375 " fill-opacity="1" fill-rule="nonzero"/><path fill="#fef0e6" d="M 86.363281 151.503906 L 86.074219 151.382812 L 86.074219 151.378906 L 86.363281 151.503906 " fill-opacity="1" fill-rule="nonzero"/><g clip-path="url(#bfb0aa7a26)"><path fill="#f9ab7c" d="M 10.363281 331.855469 L 0.617188 331.855469 L 29.050781 252.621094 L 29.433594 242.96875 C 31.859375 208.972656 51.652344 173.660156 51.652344 173.660156 L 60.898438 155.972656 L 63.371094 148.859375 C 63.371094 148.859375 65.761719 141.433594 70.378906 141.433594 C 70.898438 141.433594 71.449219 141.527344 72.023438 141.738281 L 84.363281 146.242188 C 84.363281 146.242188 86.097656 148.386719 86.09375 150.890625 C 86.09375 151.054688 86.085938 151.214844 86.074219 151.378906 L 86.074219 151.382812 L 86.363281 151.503906 C 87.46875 149.40625 89.65625 146.1875 92.683594 146.1875 C 93.265625 146.1875 93.878906 146.308594 94.523438 146.578125 L 106.628906 151.679688 C 106.628906 151.679688 108.152344 153.75 108.148438 156.144531 C 108.148438 156.847656 108.019531 157.578125 107.679688 158.289062 L 106.734375 160.085938 L 106.867188 160.140625 L 107.015625 159.769531 C 107.015625 159.769531 109.675781 152.6875 114.160156 152.6875 C 114.746094 152.6875 115.359375 152.804688 116.003906 153.078125 L 128.109375 158.179688 C 128.109375 158.179688 129.277344 159.800781 129.554688 161.824219 C 125.371094 160.523438 122.207031 156.441406 117.613281 156.273438 C 117.484375 156.269531 117.351562 156.265625 117.21875 156.265625 C 115.070312 156.265625 113.070312 156.914062 111.253906 158.109375 C 109.933594 158.984375 109.4375 160.4375 108.933594 161.875 C 108.5625 162.914062 108.210938 164.175781 107.417969 164.976562 C 106.921875 165.472656 105.59375 166.136719 104.523438 166.136719 C 103.894531 166.136719 103.351562 165.914062 103.109375 165.296875 C 102.464844 163.664062 102.863281 161.722656 102.960938 160.023438 C 103.148438 156.765625 102.597656 153.5 99.152344 152.101562 C 98.507812 151.839844 97.894531 151.722656 97.308594 151.722656 C 94.933594 151.722656 92.972656 153.59375 91.058594 155.097656 C 89.355469 156.441406 86.960938 157.832031 84.734375 157.847656 C 84.734375 157.847656 84.726562 157.847656 84.71875 157.847656 C 82.769531 157.847656 82.773438 155.789062 82.539062 154.316406 C 82.0625 151.308594 80.863281 148.472656 77.867188 147.210938 C 77.039062 146.867188 76.203125 146.699219 75.375 146.699219 C 73.953125 146.699219 72.566406 147.199219 71.34375 148.132812 C 65.59375 152.523438 62.949219 160.597656 60.125 166.96875 C 58.066406 171.609375 55.203125 175.792969 52.757812 180.230469 C 49.046875 186.972656 45.691406 193.964844 43.304688 201.304688 C 41.238281 207.660156 39.90625 214.210938 38.804688 220.796875 C 38.058594 225.261719 37.425781 229.832031 37.71875 234.371094 C 38.320312 243.605469 43.175781 250.980469 49.382812 257.519531 C 42.910156 259.164062 37.613281 262.796875 33.898438 268.457031 C 29.789062 274.722656 26.992188 281.855469 23.757812 288.59375 C 19.125 298.253906 14.507812 321.949219 10.363281 331.855469 " fill-opacity="1" fill-rule="nonzero"/></g><g clip-path="url(#ef678945e3)"><path fill="#fef0e6" d="M 70.058594 331.855469 L 57.519531 331.855469 L 70.058594 331.855469 C 75.175781 319.546875 78.636719 311.265625 78.636719 311.265625 C 84.3125 294.726562 89.480469 280.160156 89.480469 280.160156 L 110.75 273.117188 C 130.15625 268.789062 147.015625 245.804688 147.015625 245.804688 C 147.132812 245.613281 147.25 245.421875 147.367188 245.226562 L 147.371094 245.226562 C 147.25 245.421875 147.132812 245.613281 147.015625 245.804688 C 147.015625 245.804688 130.15625 268.789062 110.75 273.117188 L 89.480469 280.160156 C 89.480469 280.160156 84.3125 294.726562 78.636719 311.265625 C 78.636719 311.265625 75.175781 319.546875 70.058594 331.855469 " fill-opacity="1" fill-rule="nonzero"/></g><path fill="#293244" d="M 147.371094 245.226562 L 147.367188 245.226562 C 150.214844 240.664062 153.664062 236.453125 157.523438 232.550781 L 157.527344 232.550781 C 153.667969 236.453125 150.214844 240.664062 147.371094 245.226562 " fill-opacity="1" fill-rule="nonzero"/><path fill="#a5d5d9" d="M 157.527344 232.550781 L 157.523438 232.550781 C 159.390625 230.660156 161.355469 228.839844 163.386719 227.09375 C 163.394531 227.089844 163.402344 227.085938 163.40625 227.082031 C 161.367188 228.835938 159.398438 230.65625 157.527344 232.550781 " fill-opacity="1" fill-rule="nonzero"/><g clip-path="url(#307d519866)"><path fill="#f9ab7c" d="M 70.058594 331.855469 L 57.519531 331.855469 C 58.859375 329.058594 60.179688 326.257812 61.476562 323.441406 C 66.359375 312.816406 74.464844 286.3125 66.5 275.296875 C 74.140625 271.09375 84.023438 272.828125 92.359375 271.726562 C 101.867188 270.476562 112.015625 267.578125 120.25 262.582031 C 124.964844 259.71875 129.046875 256.132812 132.441406 251.78125 C 135.976562 247.253906 139.089844 242.21875 143.488281 238.445312 C 147.925781 234.640625 153.546875 232.144531 158.730469 229.507812 C 160.289062 228.714844 161.839844 227.910156 163.386719 227.09375 C 161.355469 228.839844 159.390625 230.660156 157.523438 232.550781 C 153.664062 236.453125 150.214844 240.664062 147.367188 245.226562 C 147.25 245.421875 147.132812 245.613281 147.015625 245.804688 C 147.015625 245.804688 130.15625 268.789062 110.75 273.117188 L 89.480469 280.160156 C 89.480469 280.160156 84.3125 294.726562 78.636719 311.265625 C 78.636719 311.265625 75.175781 319.546875 70.058594 331.855469 " fill-opacity="1" fill-rule="nonzero"/></g></svg>