<svg xmlns="http://www.w3.org/2000/svg" xmlns:xlink="http://www.w3.org/1999/xlink" width="400" zoomAndPan="magnify" viewBox="0 0 300 149.249994" height="199" preserveAspectRatio="xMidYMid meet" version="1.0"><defs><clipPath id="7fa91ae8ad"><path d="M 283 125 L 299.25 125 L 299.25 139 L 283 139 Z M 283 125 " clip-rule="nonzero"/></clipPath><clipPath id="6c4e888fc1"><path d="M 0.75 5 L 105 5 L 105 147.757812 L 0.75 147.757812 Z M 0.75 5 " clip-rule="nonzero"/></clipPath></defs><path fill="#eff0f2" d="M 253.40625 62.144531 C 254.363281 62.402344 254.652344 58.445312 252.855469 58.992188 C 251.0625 59.542969 252.277344 61.824219 253.40625 62.144531 Z M 253.40625 62.144531 " fill-opacity="1" fill-rule="nonzero"/><path fill="#eff0f2" d="M 171.15625 3.234375 C 171.15625 3.234375 170.546875 4.074219 171.996094 4.074219 C 173.472656 4.074219 176.511719 3.089844 178.941406 3.089844 C 181.371094 3.089844 180.648438 2.253906 180.15625 2.253906 C 179.664062 2.253906 178.332031 0.921875 176.394531 1.039062 C 174.457031 1.15625 174.570312 2.023438 173.355469 2.023438 C 172.140625 2.023438 172.371094 1.644531 169.824219 1.789062 C 167.277344 1.90625 169.824219 3.003906 171.15625 3.234375 Z M 171.15625 3.234375 " fill-opacity="1" fill-rule="nonzero"/><path fill="#eff0f2" d="M 255.867188 73.761719 C 256.675781 74.3125 256.820312 75.265625 256.675781 76.769531 C 256.53125 78.273438 255.171875 78.128906 257.488281 79.082031 C 259.804688 80.035156 262.550781 81.683594 261.859375 78.675781 C 261.164062 75.671875 261.714844 75.265625 259.253906 72.925781 C 256.792969 70.613281 256.648438 72.117188 256.386719 70.179688 C 256.128906 68.269531 255.433594 64.714844 254.476562 66.074219 C 253.636719 67.289062 252.972656 67.722656 253.929688 69.773438 C 254.910156 71.855469 255.027344 73.214844 255.867188 73.761719 Z M 255.867188 73.761719 " fill-opacity="1" fill-rule="nonzero"/><path fill="#eff0f2" d="M 279.539062 91.25 C 277.746094 89.34375 274.738281 87.957031 273.519531 88.101562 C 272.277344 88.246094 271.207031 90.152344 270.511719 89.457031 C 269.816406 88.765625 267.761719 85.5 266.691406 86.453125 C 265.589844 87.40625 266.835938 88.503906 265.445312 88.503906 C 264.085938 88.503906 263.679688 90.152344 263.390625 87.957031 C 263.132812 85.757812 262.03125 84.660156 261.742188 86.308594 C 261.480469 87.957031 261.335938 89.054688 260.640625 87.8125 C 259.949219 86.566406 259.542969 87.40625 259.542969 86.164062 C 259.542969 84.921875 256.792969 83.5625 255.722656 84.921875 C 255.027344 85.789062 254.765625 85.875 254.476562 87.78125 C 254.21875 89.691406 253.523438 92.695312 255.027344 91.886719 C 256.53125 91.078125 256.820312 91.742188 257.488281 90.789062 C 258.183594 89.835938 258.992188 89.285156 260.238281 89.835938 C 261.480469 90.382812 260.933594 90.382812 263.101562 90.09375 C 265.300781 89.835938 266.371094 89.835938 267.90625 90.789062 C 269.410156 91.742188 272.421875 91.191406 272.421875 92.148438 C 272.421875 93.101562 269.265625 93.792969 272.421875 94.746094 C 275.574219 95.703125 276.242188 97.898438 277.226562 96.800781 C 278.179688 95.703125 279.539062 94.199219 280.523438 95.296875 C 281.480469 96.394531 285.183594 99.402344 284.488281 97.753906 C 283.796875 96.105469 283.941406 94.601562 286.140625 92.839844 C 288.339844 91.078125 287.789062 90.238281 286.835938 90.238281 C 285.878906 90.238281 285.878906 91.480469 283.679688 91.742188 C 281.449219 92.089844 281.335938 93.160156 279.539062 91.25 Z M 279.539062 91.25 " fill-opacity="1" fill-rule="nonzero"/><path fill="#eff0f2" d="M 151.417969 5.835938 C 151.5625 5.867188 151.679688 5.894531 151.792969 5.921875 C 153.011719 6.414062 153.878906 5.691406 153.992188 4.710938 C 155.324219 2.773438 154.832031 6.300781 156.308594 5.691406 C 157.757812 5.085938 159.839844 3.609375 161.546875 2.773438 C 163.253906 1.933594 159.464844 2.28125 156.425781 1.789062 C 153.386719 1.300781 149.101562 2.167969 147.886719 3.003906 C 146.757812 3.785156 149.652344 5.316406 151.417969 5.835938 Z M 151.417969 5.835938 " fill-opacity="1" fill-rule="nonzero"/><path fill="#eff0f2" d="M 250.65625 78.53125 C 249.816406 79.601562 248.199219 81.941406 247.097656 82.78125 C 246 83.589844 244.089844 82.519531 244.234375 84.429688 C 244.378906 86.335938 244.492188 87.175781 244.636719 88.535156 C 244.78125 89.890625 245.042969 90.730469 247.097656 90.730469 C 249.152344 90.730469 250.109375 91.425781 250.800781 91.136719 C 251.496094 90.875 251.351562 89.632812 252.164062 87.984375 C 252.972656 86.335938 254.363281 86.742188 253.8125 85.527344 C 253.261719 84.285156 253.261719 84.574219 253.261719 83.332031 C 253.261719 82.085938 253.957031 82.925781 253.550781 80.875 C 253.117188 78.820312 251.613281 77.320312 250.65625 78.53125 Z M 250.65625 78.53125 " fill-opacity="1" fill-rule="nonzero"/><path fill="#eff0f2" d="M 255.347656 97.523438 C 257.285156 97.753906 258.761719 97.523438 260.09375 96.800781 C 261.421875 96.078125 260.816406 95.210938 260.699219 94.863281 C 260.585938 94.488281 259.601562 95.238281 258.269531 95.46875 C 256.9375 95.703125 256.5625 95.703125 254.855469 95.847656 C 253.148438 95.960938 254.246094 95.238281 252.421875 95.125 C 250.601562 95.007812 248.777344 94.632812 246.691406 93.910156 C 244.609375 93.1875 243.539062 92.582031 242.0625 92.089844 C 240.585938 91.597656 241.945312 90.757812 241.832031 88.679688 C 241.714844 86.597656 240.355469 87.464844 239.285156 86.742188 C 238.183594 86.019531 238.558594 84.429688 239.050781 84.921875 C 239.542969 85.410156 239.660156 86.019531 239.660156 83.445312 C 239.660156 80.902344 237.34375 79.195312 235.898438 77 C 234.421875 74.804688 234.683594 73.589844 234.796875 72.492188 C 234.914062 71.394531 237.488281 73.472656 238.820312 75.035156 C 240.152344 76.625 240.152344 76.625 240.90625 76.25 C 241.628906 75.875 243.828125 74.660156 244.320312 72.722656 C 244.8125 70.785156 240.414062 66.882812 239.804688 65.0625 C 239.195312 63.242188 240.644531 64.339844 241.394531 63.125 C 242.121094 61.914062 242.988281 63.617188 242.496094 64.457031 C 242.003906 65.292969 242.613281 65.785156 243.105469 66.652344 C 243.597656 67.492188 243.597656 66.652344 244.089844 65.554688 C 244.578125 64.457031 244.203125 64.078125 245.070312 63.355469 C 245.941406 62.636719 249.210938 61.652344 250.078125 60.8125 C 250.945312 59.976562 251.554688 58.992188 252.625 55.957031 C 253.726562 52.921875 252.511719 53.039062 252.019531 51.941406 C 251.527344 50.839844 250.078125 49.019531 249.210938 47.921875 C 248.371094 46.824219 249.09375 47.085938 249.703125 46.707031 C 250.308594 46.332031 249.816406 45.496094 248.371094 45.003906 C 246.894531 44.511719 247.15625 45.496094 245.824219 45.234375 C 244.492188 45.003906 245.214844 44.019531 246.664062 42.316406 C 248.140625 40.609375 247.386719 42.691406 248.371094 43.414062 C 249.355469 44.136719 249.585938 42.804688 250.308594 43.183594 C 251.035156 43.558594 252.511719 44.28125 253.609375 45.726562 C 254.710938 47.171875 254.710938 48.875 255.808594 48.761719 C 256.910156 48.644531 256.910156 48.152344 257.402344 47.054688 C 257.894531 45.957031 256.070312 44.972656 255.203125 44.136719 C 254.332031 43.296875 253.492188 43.296875 254.21875 42.546875 C 254.941406 41.824219 254.332031 40.726562 254.710938 39.859375 C 255.085938 39.019531 256.417969 39.480469 257.75 38.875 C 259.078125 38.269531 259.195312 36.1875 259.195312 34.019531 C 259.195312 31.824219 258.09375 30.867188 257.488281 30.117188 C 256.878906 29.394531 258.210938 29.742188 259.3125 30.609375 C 260.410156 31.445312 262.117188 36.070312 262.464844 37.921875 C 262.84375 39.742188 262.582031 39.742188 264.058594 41.332031 C 265.535156 42.921875 265.042969 42.660156 264.550781 44.484375 C 264.058594 46.304688 262.84375 46.796875 261.019531 47.285156 C 259.195312 47.777344 259.804688 48.125 258.703125 49.972656 C 257.605469 51.796875 259.3125 51.910156 260.296875 52.402344 C 261.277344 52.894531 261.742188 51.074219 262.988281 50.207031 C 264.203125 49.367188 265.535156 48.730469 267.617188 48.730469 C 269.699219 48.730469 267.007812 45.929688 266.894531 44.484375 C 266.777344 43.039062 266.664062 42.054688 266.171875 40.957031 C 265.679688 39.859375 266.664062 39.859375 268.109375 39.136719 C 269.554688 38.414062 269.441406 36.9375 268.601562 36.9375 C 267.761719 36.9375 267.007812 37.546875 265.070312 37.429688 C 263.132812 37.3125 263.625 35.722656 263.132812 35.117188 C 262.640625 34.511719 262.03125 33.179688 261.914062 32.082031 C 261.800781 30.984375 260.09375 29.539062 258.878906 28.441406 C 257.660156 27.34375 256.9375 26.621094 256.9375 27.109375 C 256.9375 27.601562 256.214844 26.996094 254.507812 26.878906 C 252.800781 26.765625 252.421875 27.109375 250.976562 26.996094 C 249.5 26.878906 251.089844 24.453125 251.699219 22.746094 C 252.308594 21.039062 254.015625 22.023438 255.347656 22.023438 C 256.675781 22.023438 257.285156 22.140625 259.253906 22.628906 C 261.191406 23.121094 260.351562 21.417969 260.730469 20.085938 C 261.105469 18.757812 261.945312 19.480469 263.042969 19.972656 C 264.144531 20.460938 264.492188 20.578125 264.492188 19.480469 C 264.492188 18.382812 265.476562 18.152344 266.316406 19.105469 C 267.152344 20.085938 264.839844 22.140625 264.839844 22.140625 C 264.839844 22.140625 264.117188 24.335938 265.445312 25.058594 C 266.777344 25.78125 269.46875 28.960938 271.0625 30.058594 C 272.652344 31.15625 271.554688 28.238281 271.554688 26.15625 C 271.554688 24.074219 270.105469 24.335938 269.007812 22.398438 C 267.90625 20.460938 268.628906 21.300781 270.714844 21.300781 C 272.796875 21.300781 272.914062 20.578125 273.40625 19.972656 C 273.898438 19.363281 274.246094 19.25 276.097656 19.25 C 277.921875 19.25 276.820312 18.527344 275.980469 17.542969 C 275.140625 16.5625 273.433594 16.820312 274.042969 16.214844 C 274.648438 15.605469 277.949219 16.589844 279.511719 17.195312 C 281.105469 17.804688 280.726562 17.3125 280.496094 15.867188 C 280.265625 14.421875 278.902344 15.492188 275.027344 14.046875 C 271.117188 12.601562 266.863281 11.734375 265.535156 11.734375 C 264.203125 11.734375 265.15625 10.894531 266.140625 10.894531 C 267.125 10.894531 266.863281 10.058594 265.910156 9.566406 C 264.925781 9.074219 264.085938 9.449219 263.710938 10.546875 C 263.332031 11.648438 264.808594 11.761719 262.003906 11.761719 C 259.195312 11.761719 257.140625 11.761719 253.839844 11.15625 C 250.542969 10.546875 249.328125 10.546875 246.519531 10.433594 C 243.710938 10.316406 243.972656 9.101562 241.050781 9.101562 C 238.125 9.101562 239.109375 8.003906 237.894531 6.675781 C 236.679688 5.34375 236.070312 5.691406 232.425781 5.691406 C 228.777344 5.691406 230.71875 7.136719 231.441406 7.398438 C 232.164062 7.628906 234.132812 8.234375 235.464844 9.480469 C 236.792969 10.691406 233.03125 10.203125 231.441406 10.316406 C 229.847656 10.433594 229.992188 9.480469 228.140625 8.378906 C 226.316406 7.28125 221.804688 7.890625 219.257812 7.773438 C 216.710938 7.65625 216.566406 7.773438 215.609375 5.953125 C 214.625 4.132812 212.570312 5.113281 209.878906 5.113281 C 207.1875 5.113281 205.742188 3.785156 204.410156 2.917969 C 203.078125 2.078125 200.996094 1.933594 198.070312 1.472656 C 195.148438 0.980469 196.738281 3.292969 197.839844 3.410156 C 197.839844 3.410156 199.054688 3.898438 200.269531 4.015625 C 201.488281 4.132812 204.0625 4.246094 205.394531 5.835938 C 206.726562 7.425781 201.253906 6.820312 198.824219 8.148438 C 196.394531 9.480469 194.425781 8.871094 192.746094 9.59375 C 191.039062 10.316406 193.585938 11.53125 194.222656 13.121094 C 194.828125 14.710938 194.222656 14.710938 193.121094 15.058594 C 192.023438 15.433594 193.5 13.351562 193.007812 12.746094 C 192.515625 12.136719 190.691406 8.988281 189.246094 8.003906 C 187.769531 7.023438 188.027344 8.84375 188.261719 10.203125 C 188.492188 11.53125 188.867188 11.53125 189.246094 12.515625 C 189.621094 13.496094 187.652344 12.515625 186.699219 11.792969 C 185.714844 11.070312 182.558594 12.773438 181.082031 12.023438 C 179.636719 11.300781 181.574219 11.53125 181.574219 10.808594 C 181.574219 10.085938 179.867188 10.691406 179.375 9.59375 C 178.882812 8.496094 182.414062 7.167969 184.613281 6.789062 C 186.8125 6.414062 186.554688 6.414062 186.554688 5.34375 C 186.554688 4.246094 182.644531 4.621094 179.375 6.183594 C 176.074219 7.773438 176.945312 8.871094 176.453125 9.941406 C 175.960938 11.039062 177.550781 11.15625 178.277344 11.761719 C 179 12.371094 177.4375 12.601562 175.960938 13.09375 C 174.511719 13.582031 174.136719 13.09375 172.429688 13.699219 C 170.722656 14.304688 171.707031 15.027344 170.230469 15.636719 C 168.78125 16.242188 168.898438 16.242188 167.683594 16.734375 C 166.46875 17.226562 167.914062 14.914062 169.621094 14.652344 C 171.328125 14.421875 170.835938 13.4375 170.34375 13.0625 C 169.855469 12.6875 166.699219 11.734375 163.285156 10.75 C 159.867188 9.769531 154.398438 11.125 152.574219 11.964844 C 150.753906 12.804688 150.867188 13.4375 150.636719 14.652344 C 150.40625 15.867188 146.238281 17.6875 144.183594 18.785156 C 142.097656 19.882812 143.953125 21.328125 144.558594 22.3125 C 145.167969 23.296875 146.5 22.804688 148.207031 22.3125 C 149.914062 21.820312 149.652344 23.902344 149.914062 24.625 C 150.144531 25.347656 151.128906 25.464844 152.71875 24.742188 C 154.3125 24.019531 153.9375 22.3125 153.9375 21.328125 C 153.9375 20.347656 153.558594 19.855469 154.660156 18.527344 C 155.757812 17.195312 156.742188 16.328125 157.699219 15.722656 C 158.683594 15.117188 158.539062 16.214844 157.089844 17.429688 C 155.644531 18.640625 156.597656 19.015625 157.320312 20.460938 C 158.046875 21.9375 159.523438 20.460938 161.34375 20.230469 C 163.167969 20 159.753906 21.820312 158.421875 21.820312 C 157.089844 21.820312 158.421875 23.265625 157.582031 23.265625 C 156.742188 23.265625 156.597656 23.875 156.484375 25.347656 C 156.367188 26.820312 155.875 26.445312 154.890625 26.820312 C 153.90625 27.199219 152.460938 27.3125 150.867188 26.9375 C 149.277344 26.5625 149.421875 25.117188 148.320312 24.132812 C 147.222656 23.152344 146.988281 24.625 146.988281 25.230469 C 146.988281 25.839844 145.890625 27.167969 145.398438 27.167969 C 144.90625 27.167969 143.460938 28.644531 142.589844 29.855469 C 141.75 31.070312 141.144531 30.347656 140.882812 29.855469 C 140.652344 29.367188 141.492188 28.644531 141 27.429688 C 140.507812 26.214844 138.566406 25.230469 139.175781 22.429688 C 139.785156 19.625 138.453125 21.097656 136.484375 21.328125 C 134.546875 21.5625 133.9375 22.429688 133.792969 23.152344 C 133.675781 23.875 132.578125 25.347656 131.363281 26.675781 C 130.144531 28.007812 130.984375 29.105469 131.59375 30.578125 C 132.199219 32.054688 133.792969 30.089844 134.285156 28.875 C 134.777344 27.660156 135.382812 27.054688 136.109375 27.660156 C 136.832031 28.265625 135.007812 29.367188 134.777344 30.8125 C 134.546875 32.285156 135.269531 32.140625 136.976562 31.648438 C 138.683594 31.15625 137.816406 30.8125 139.175781 31.417969 C 140.507812 32.023438 137.960938 32.515625 136.367188 32.632812 C 134.777344 32.746094 135.382812 33.84375 136.746094 34.828125 C 138.078125 35.8125 137.46875 37.257812 136.628906 37.371094 C 135.789062 37.488281 134.199219 37.746094 131.765625 38.210938 C 129.335938 38.703125 131.535156 40.636719 131.042969 41.738281 C 130.550781 42.835938 130.4375 45.261719 131.535156 45.378906 C 132.636719 45.496094 132.636719 47.316406 132.027344 47.921875 C 131.417969 48.527344 131.304688 49.136719 129.828125 50.234375 C 128.351562 51.332031 129.453125 52.316406 128.988281 53.761719 C 128.496094 55.207031 127.28125 54.367188 125.835938 55.957031 C 124.386719 57.546875 123.75 58.761719 122.679688 60.582031 C 121.578125 62.402344 121.464844 62.519531 122.796875 64.714844 C 124.125 66.914062 122.796875 67.519531 121.695312 69.457031 C 120.59375 71.394531 122.070312 71.539062 122.535156 73.214844 C 123.027344 74.917969 124.011719 74.542969 124.359375 76.25 C 124.734375 77.953125 125.199219 78.445312 126.90625 79.660156 C 128.613281 80.875 130.320312 82.578125 131.160156 82.203125 C 132 81.828125 133.359375 80.875 136.167969 80.988281 C 138.972656 81.105469 137.988281 79.773438 140.914062 79.285156 C 143.835938 78.792969 142.242188 79.660156 142.621094 80.496094 C 142.996094 81.363281 144.558594 82.203125 146.757812 82.320312 C 148.957031 82.433594 147.136719 85.121094 146.988281 86.828125 C 146.875 88.535156 146.988281 88.535156 148.089844 89.980469 C 149.191406 91.425781 150.636719 94.71875 151.011719 96.425781 C 151.390625 98.128906 150.636719 100.066406 149.679688 101.65625 C 148.699219 103.246094 149.074219 106.886719 151.128906 109.574219 C 153.210938 112.265625 151.96875 112.121094 151.96875 114.921875 C 151.96875 117.726562 153.445312 117.234375 154.515625 118.824219 C 155.613281 120.414062 155.121094 123.335938 156.105469 124.894531 C 157.089844 126.484375 158.796875 125.011719 160.738281 124.289062 C 162.675781 123.566406 163.542969 123.796875 165.859375 122.09375 C 168.175781 120.386719 170 116.976562 170 116.023438 C 170 115.039062 170.722656 114.691406 171.9375 114.199219 C 173.152344 113.710938 172.921875 110.558594 172.777344 109.691406 C 172.660156 108.851562 173.007812 108.101562 173.5 107.609375 C 173.992188 107.121094 177.03125 104.199219 178.132812 102.984375 C 179.230469 101.773438 178.246094 100.066406 178.015625 98.128906 C 177.785156 96.191406 177.03125 95.441406 177.03125 93.128906 C 177.03125 90.816406 176.308594 91.046875 180.332031 87.289062 C 184.351562 83.53125 188.117188 77.550781 188.492188 76.21875 C 188.867188 74.890625 188.722656 73.792969 188.492188 72.808594 C 188.261719 71.828125 183.023438 73.792969 181.804688 73.792969 C 180.589844 73.792969 178.390625 71.105469 178.160156 70.148438 C 177.929688 69.167969 176.074219 68.214844 174.511719 66.738281 C 172.921875 65.292969 174.136719 63.210938 172.921875 61.625 C 171.707031 60.035156 171.097656 57.722656 170.835938 56.390625 C 170.605469 55.0625 172.660156 57.375 174.253906 59.195312 C 175.84375 61.015625 177.898438 64.425781 178.507812 65.640625 C 179.113281 66.855469 179.605469 68.675781 179.722656 70.148438 C 179.839844 71.59375 180.824219 71.855469 182.269531 71.738281 C 183.714844 71.625 188.839844 68.9375 190.664062 68.097656 C 192.484375 67.257812 194.683594 64.6875 195.523438 62.257812 C 196.363281 59.832031 193.703125 60.179688 192.484375 58.964844 C 191.269531 57.75 191.269531 58.964844 189.792969 59.339844 C 188.347656 59.714844 187.101562 57.75 184.789062 55.582031 C 182.472656 53.386719 183.949219 54.136719 184.410156 53.644531 C 184.875 53.152344 187.21875 54.742188 188.550781 56.332031 C 189.882812 57.921875 190.140625 57.316406 191.703125 57.316406 C 193.296875 57.316406 193.644531 58.039062 195.726562 58.644531 C 197.8125 59.253906 198.882812 58.414062 200.675781 58.589844 C 202.441406 58.761719 202.179688 59.628906 203.425781 61.566406 C 204.640625 63.5 204.148438 62.894531 206.839844 63.15625 C 209.53125 63.386719 207.5625 63.15625 207.5625 64.859375 C 207.5625 66.566406 207.796875 67.171875 209.386719 69.253906 C 210.980469 71.335938 211.585938 75.207031 212.078125 77.175781 C 212.570312 79.109375 213.554688 77.175781 215.117188 77.175781 C 216.710938 77.175781 215.234375 78.503906 216.449219 80.46875 C 217.664062 82.40625 218.53125 79.863281 218.53125 79.140625 C 218.53125 78.417969 217.808594 76.597656 217.085938 75.988281 C 216.363281 75.382812 215.378906 75.496094 216.21875 74.542969 C 217.085938 73.5625 216.332031 72.605469 216.332031 71.25 C 216.332031 69.917969 216.449219 68.9375 217.058594 68.328125 C 217.664062 67.722656 219.863281 65.523438 221.195312 63.933594 C 222.527344 62.347656 223.625 62.113281 225.449219 62.230469 C 227.273438 62.347656 225.824219 62.605469 226.925781 64.050781 C 228.027344 65.523438 228.257812 67.578125 229.472656 69.050781 C 230.6875 70.527344 230.804688 68.820312 231.789062 68.328125 C 232.773438 67.835938 232.164062 69.773438 232.886719 71.25 C 233.609375 72.722656 233.121094 74.660156 233.121094 75.988281 C 233.121094 77.320312 234.710938 78.675781 235.667969 79.890625 C 236.648438 81.105469 236.273438 81.710938 235.667969 82.203125 C 235.058594 82.695312 233.84375 80.988281 232.859375 80.007812 C 231.875 79.023438 230.425781 79.628906 231.410156 80.730469 C 232.394531 81.828125 233.003906 83.765625 234.101562 85.84375 C 235.203125 87.925781 237.519531 90.355469 239.109375 92.523438 C 240.703125 94.71875 245.796875 95.671875 247.761719 95.671875 C 249.5 95.585938 253.40625 97.292969 255.347656 97.523438 Z M 170.808594 50.320312 C 170.085938 51.765625 169.707031 52.75 168.609375 52.402344 C 167.507812 52.027344 163.863281 52.171875 162.039062 51.5625 C 160.214844 50.957031 157.523438 49.859375 157.03125 51.1875 C 156.539062 52.519531 158.25 53.617188 155.210938 52.519531 C 152.171875 51.417969 148.871094 50.089844 148.523438 49.105469 C 148.148438 48.125 149.738281 45.464844 147.539062 45.464844 C 145.339844 45.464844 142.300781 45.351562 141.316406 46.074219 C 140.332031 46.796875 136.570312 48.152344 135.355469 47.777344 C 134.257812 47.460938 132.546875 47.054688 134.515625 46.1875 C 136.457031 45.351562 138.769531 45.8125 139.03125 44.597656 C 139.261719 43.382812 137.324219 43.152344 139.261719 42.054688 C 141.203125 40.957031 140.476562 39.972656 141.808594 39.367188 C 143.140625 38.757812 144.964844 38.875 145.949219 38.527344 C 146.933594 38.152344 145.570312 37.804688 147.539062 38.902344 C 149.480469 40.003906 150.695312 42.054688 151.679688 42.199219 C 152.664062 42.316406 153.269531 43.039062 152.664062 43.527344 C 152.054688 44.019531 151.070312 44.367188 150.722656 44.367188 C 150.347656 44.367188 150.117188 45.351562 150.492188 45.464844 C 150.867188 45.582031 151.707031 47.171875 152.316406 46.679688 C 152.921875 46.1875 152.316406 45.464844 153.414062 45.089844 C 154.515625 44.714844 155.613281 44.25 155.121094 43.5 C 154.628906 42.777344 154.136719 41.910156 155.121094 42.402344 C 156.105469 42.894531 156.945312 42.632812 155.847656 41.5625 C 154.746094 40.464844 154.371094 40.464844 153.039062 39.480469 C 151.707031 38.5 150.230469 38.007812 150.230469 37.285156 C 150.230469 36.5625 149.390625 35.203125 150.722656 35.695312 C 152.054688 36.1875 156.683594 38.730469 156.683594 39.714844 C 156.683594 40.695312 157.902344 42.402344 156.800781 43.238281 C 155.703125 44.078125 157.902344 44.339844 158.394531 44.828125 C 158.886719 45.320312 158.625 46.652344 159.984375 46.417969 C 161.316406 46.1875 162.300781 46.304688 161.578125 44.945312 C 160.851562 43.617188 159.636719 43.007812 160.851562 42.515625 C 162.070312 42.027344 162.328125 41.417969 162.675781 43.5 C 163.050781 45.582031 162.558594 46.304688 165.484375 46.417969 C 168.40625 46.535156 170.34375 45.695312 170.722656 46.535156 C 171.039062 47.402344 171.53125 48.875 170.808594 50.320312 Z M 175.554688 41.214844 C 173.617188 41.101562 170.316406 40.492188 168.726562 40.492188 C 167.132812 40.492188 166.527344 40.726562 166.527344 40.726562 C 165.195312 40.492188 162.011719 41.332031 163.601562 39.25 C 165.195312 37.167969 164.210938 34.511719 166.148438 35.234375 C 168.089844 35.957031 168.234375 38.757812 169.449219 37.054688 C 170.664062 35.347656 171.996094 33.410156 172.371094 34.742188 C 172.746094 36.070312 170.664062 37.167969 173.210938 38.269531 C 175.785156 39.394531 177.496094 41.332031 175.554688 41.214844 Z M 187.246094 45.695312 C 185.425781 45.695312 183.222656 45.320312 183.222656 44.367188 L 183.222656 42.054688 C 182.242188 39.742188 181.023438 39.25 181.023438 37.660156 C 181.023438 36.070312 182.007812 34.742188 183.949219 34.742188 C 185.886719 34.742188 186.871094 34.511719 185.394531 36.1875 C 183.949219 37.890625 182.585938 38.007812 184.554688 40.695312 C 186.523438 43.382812 189.070312 45.695312 187.246094 45.695312 Z M 187.246094 45.695312 " fill-opacity="1" fill-rule="nonzero"/><path fill="#eff0f2" d="M 280.496094 108.882812 C 279.25 105.730469 279.25 103.273438 278.585938 101.917969 C 277.890625 100.558594 278.441406 98.910156 276.386719 98.910156 C 275.546875 98.910156 275.574219 99.460938 274.882812 101.222656 C 274.1875 102.984375 275.027344 106.28125 273.230469 105.875 C 271.464844 105.472656 270.628906 104.632812 270.222656 102.871094 C 269.816406 101.105469 270.773438 99.460938 269.410156 99.460938 C 268.050781 99.460938 264.203125 98.503906 263.246094 100.007812 C 262.292969 101.511719 263.507812 102.0625 261.480469 102.0625 C 259.425781 102.0625 258.617188 102.0625 257.515625 103.417969 C 256.417969 104.777344 254.910156 108.621094 249.035156 108.882812 C 243.160156 109.140625 246.171875 112.292969 246.171875 115.703125 C 246.171875 119.113281 243.015625 121.167969 244.40625 122.410156 C 245.765625 123.652344 244 125.269531 246.867188 124.316406 C 249.730469 123.363281 252.335938 123.074219 256.851562 122.410156 C 261.367188 121.714844 263.421875 121.457031 263.566406 123.652344 C 263.710938 125.847656 263.015625 124.347656 264.808594 124.75 C 266.605469 125.15625 264.664062 128.046875 266.71875 128.304688 C 268.773438 128.566406 267.53125 130.070312 269.324219 130.070312 C 271.089844 130.070312 271.785156 131.976562 270.28125 131.976562 C 268.773438 131.976562 266.574219 135.128906 268.773438 134.03125 C 270.972656 132.929688 273.144531 132.671875 273.144531 131.023438 C 273.144531 129.375 272.882812 129.261719 275.460938 127.207031 C 278.066406 125.15625 284.085938 120.242188 283.679688 116.28125 C 283.246094 112.320312 281.742188 112.03125 280.496094 108.882812 Z M 280.496094 108.882812 " fill-opacity="1" fill-rule="nonzero"/><g clip-path="url(#7fa91ae8ad)"><path fill="#eff0f2" d="M 298.441406 125.300781 C 297.339844 124.75 297.339844 125.703125 296.675781 127.757812 C 295.980469 129.808594 292.566406 130.617188 292.015625 131.050781 C 291.464844 131.457031 290.363281 132.699219 290.363281 132.699219 C 287.761719 134.347656 282.695312 135.996094 283.941406 137.355469 C 285.183594 138.710938 285.996094 137.902344 289.003906 136.398438 C 292.015625 134.898438 292.824219 132.988281 294.476562 131.890625 C 296.125 130.792969 297.078125 130.9375 298.292969 129.578125 C 299.539062 128.160156 299.539062 125.847656 298.441406 125.300781 Z M 298.441406 125.300781 " fill-opacity="1" fill-rule="nonzero"/></g><g clip-path="url(#6c4e888fc1)"><path fill="#eff0f2" d="M 103.203125 91.222656 C 101.003906 90.613281 100.886719 91.335938 100.65625 90.125 C 100.421875 88.910156 98.949219 88.910156 97.617188 88.910156 C 96.285156 88.910156 95.792969 88.792969 94.691406 87.8125 C 93.59375 86.828125 91.277344 86.710938 90.554688 86.480469 C 89.832031 86.25 90.179688 84.167969 88.730469 82.230469 C 87.253906 80.296875 84.214844 79.917969 82.277344 78.820312 C 80.339844 77.722656 80.945312 73.472656 78.140625 73.820312 C 75.332031 74.195312 75.101562 75.296875 72.523438 73.9375 C 69.976562 72.605469 68.269531 71.738281 66.910156 72.722656 C 65.578125 73.707031 63.871094 75.527344 63.003906 76.019531 C 62.164062 76.507812 60.6875 75.640625 59.847656 75.785156 C 59.007812 75.902344 58.023438 74.917969 57.417969 74.082031 C 56.808594 73.242188 58.515625 68.964844 56.925781 68.964844 C 55.332031 68.964844 53.277344 68.242188 53.277344 67.636719 C 53.277344 67.027344 56.578125 63.386719 55.59375 62.78125 C 54.609375 62.171875 52.671875 62.546875 50.964844 64.859375 C 49.253906 67.171875 47.664062 67.058594 46.824219 66.191406 C 45.984375 65.351562 44.015625 60.351562 45.609375 57.546875 C 47.199219 54.742188 49.746094 53.414062 51.6875 53.53125 C 53.625 53.644531 53.394531 53.039062 55.332031 52.921875 C 57.273438 52.808594 59.730469 53.414062 60.195312 54.136719 C 60.6875 54.859375 59.703125 56.074219 60.917969 57.546875 C 62.132812 58.992188 62.859375 58.386719 63.003906 58.992188 C 63.117188 59.601562 62.019531 60.207031 61.554688 60.207031 C 61.0625 60.207031 57.039062 61.304688 58.632812 62.027344 C 60.222656 62.75 63.03125 62.144531 63.640625 63.125 C 64.246094 64.109375 61.699219 66.160156 65.347656 66.277344 C 68.992188 66.390625 71.425781 66.882812 73.507812 67 C 75.59375 67.113281 77.039062 67.230469 77.269531 67.722656 C 77.503906 68.214844 78.976562 65.902344 75.5625 65.902344 C 72.148438 65.902344 69.484375 63.964844 67.632812 63.589844 C 65.808594 63.214844 64.59375 62 64.480469 60.554688 C 64.363281 59.078125 64.59375 58.011719 63.871094 56.796875 C 63.148438 55.582031 61.324219 52.664062 63.03125 51.449219 C 64.738281 50.234375 68.152344 47.921875 68.992188 46.332031 C 69.832031 44.742188 69.832031 44.394531 71.800781 43.183594 C 73.738281 41.96875 76.054688 40.378906 77.15625 39.28125 C 78.253906 38.179688 80.078125 36.476562 80.453125 37.34375 C 80.832031 38.179688 82.539062 38.441406 84.59375 37.71875 C 86.675781 36.996094 89.222656 35.175781 87.023438 35.175781 C 84.824219 35.175781 83.492188 34.566406 84.101562 33.730469 C 84.707031 32.890625 82.652344 32.515625 82.015625 32.632812 C 81.410156 32.746094 81.410156 31.417969 83.492188 31.042969 C 85.578125 30.667969 83.871094 32.515625 85.578125 32.371094 C 87.285156 32.257812 88.382812 30.925781 89.601562 30.667969 C 90.816406 30.433594 91.308594 31.503906 89.714844 32.601562 C 88.125 33.699219 87.632812 33.324219 89.714844 33.816406 C 91.800781 34.308594 92.40625 35.40625 93.621094 34.308594 C 94.839844 33.210938 93.390625 32.835938 93.246094 31.390625 C 93.128906 29.945312 93.476562 27.253906 92.144531 26.273438 C 90.816406 25.289062 90.816406 24.074219 90.816406 23.121094 C 90.816406 22.140625 91.046875 20.085938 89.714844 21.039062 C 88.382812 22.023438 87.285156 22.628906 86.792969 22.140625 C 86.300781 21.648438 87.023438 20.664062 85.953125 19.941406 C 84.851562 19.21875 84.738281 18.121094 83.40625 18.238281 C 82.074219 18.351562 80.714844 17.253906 79.992188 18.84375 C 79.269531 20.433594 78.515625 21.761719 78.285156 22.253906 C 78.050781 22.746094 79.121094 24.453125 78.167969 25.289062 C 77.183594 26.128906 74.519531 27.371094 74.144531 28.210938 C 73.769531 29.046875 72.320312 31.246094 71.945312 29.800781 C 71.570312 28.355469 73.160156 26.15625 70.960938 25.550781 C 68.761719 24.941406 67.054688 25.433594 66.707031 24.105469 C 66.332031 22.773438 65.375 21.5625 67.546875 20.460938 C 69.746094 19.363281 71.945312 17.429688 74 17.167969 C 76.085938 16.9375 74.609375 18.640625 76.316406 18.496094 C 78.023438 18.382812 76.085938 17.515625 78.140625 17.167969 C 80.222656 16.792969 79.847656 16.792969 79.238281 16.070312 C 78.632812 15.347656 79.007812 15.230469 80.570312 14.480469 C 82.160156 13.757812 80.945312 13.265625 82.507812 12.660156 C 84.101562 12.050781 84.449219 11.445312 85.316406 11.445312 C 86.15625 11.445312 86.039062 11.820312 85.546875 12.917969 C 85.054688 14.015625 84.707031 14.738281 86.15625 14.015625 C 87.632812 13.292969 88.355469 12.804688 87.253906 13.902344 C 86.15625 15 85.433594 15 83.839844 15.230469 C 82.25 15.460938 82.742188 15.722656 83.464844 16.5625 C 84.1875 17.398438 86.011719 17.542969 86.617188 18.007812 C 87.226562 18.496094 87.949219 20.203125 89.425781 19.335938 C 90.875 18.496094 89.800781 18.351562 91.742188 17.515625 C 93.679688 16.675781 96.488281 16.183594 96.257812 15.085938 C 96.023438 13.988281 94.054688 13.382812 93.824219 12.050781 C 93.59375 10.722656 96.515625 9.96875 92.726562 9.363281 C 88.964844 8.757812 91.132812 8.265625 89.308594 8.265625 C 87.488281 8.265625 84.070312 8.265625 82.855469 8.871094 C 81.640625 9.480469 80.917969 8.496094 80.308594 9.480469 C 79.703125 10.460938 80.425781 11.792969 79.816406 11.792969 C 79.210938 11.792969 78.109375 12.773438 77.617188 11.792969 C 77.125 10.808594 76.027344 9.855469 77.503906 9.480469 C 78.949219 9.101562 79.210938 9.363281 79.441406 8.265625 C 79.671875 7.167969 77.359375 7.28125 78.71875 7.050781 C 80.050781 6.820312 80.65625 7.167969 82.480469 7.167969 C 84.304688 7.167969 88.441406 7.890625 89.050781 6.789062 C 89.65625 5.691406 88.066406 5.691406 86.242188 5.578125 C 84.417969 5.460938 81.234375 4.855469 79.90625 5.460938 C 78.574219 6.066406 76.867188 7.050781 76.257812 8.003906 C 75.648438 8.988281 75.648438 7.773438 74.433594 8.003906 C 73.21875 8.234375 71.136719 9.59375 72.234375 10.316406 C 73.335938 11.039062 73.335938 11.90625 72.121094 11.90625 C 70.902344 11.90625 70.527344 13.121094 69.6875 13.121094 C 68.847656 13.121094 66.535156 13.003906 67.605469 12.398438 C 68.703125 11.792969 69.917969 11.792969 69.804688 10.316406 C 69.6875 8.84375 71.019531 8.378906 71.019531 7.890625 C 71.019531 7.398438 68.097656 8.988281 65.78125 8.265625 C 63.464844 7.542969 62.480469 6.445312 60.167969 6.558594 C 57.851562 6.675781 54.8125 9.710938 56.257812 9.96875 C 57.734375 10.203125 58.804688 9.738281 59.066406 10.460938 C 59.296875 11.183594 58.835938 11.792969 59.675781 12.167969 C 60.515625 12.542969 62.105469 13.496094 60.050781 13.003906 C 57.996094 12.515625 58.949219 11.675781 55.796875 11.53125 C 52.640625 11.414062 50.671875 10.433594 47.402344 11.300781 C 44.105469 12.136719 44.597656 12.890625 42.398438 12.136719 C 40.195312 11.414062 35.566406 9.710938 31.917969 10.433594 C 28.273438 11.15625 23.757812 12.371094 22.660156 13.121094 C 21.558594 13.84375 23.757812 14.566406 21.820312 14.710938 C 19.878906 14.828125 15.25 14.710938 16.203125 15.925781 C 17.1875 17.140625 18.402344 17.253906 16.929688 17.515625 C 15.480469 17.746094 13.511719 17.890625 12.789062 18.960938 C 12.066406 20.058594 9.375 20.664062 11.082031 21.15625 C 12.789062 21.648438 15.597656 22.746094 14.382812 22.863281 C 13.164062 22.976562 6.945312 25.40625 4.28125 26.011719 C 1.589844 26.621094 -0.582031 29.539062 1.734375 28.671875 C 4.6875 27.601562 12.585938 25.144531 14.035156 24.539062 C 15.480469 23.929688 16.117188 24.421875 15.972656 25.261719 C 15.855469 26.097656 17.679688 24.886719 19.128906 23.785156 C 20.574219 22.6875 20.574219 20.492188 21.820312 21.242188 C 23.035156 21.964844 23.757812 21.242188 24.742188 21.011719 C 25.726562 20.78125 26.679688 20.171875 27.550781 20.636719 C 28.390625 21.128906 30.589844 21.617188 31.195312 22.109375 C 31.804688 22.601562 32.035156 23.699219 31.429688 23.816406 C 30.820312 23.929688 30.703125 24.539062 30.820312 25.519531 C 30.9375 26.503906 31.429688 27.34375 30.210938 27.601562 C 28.996094 27.832031 29.226562 29.308594 29.980469 29.191406 C 30.703125 29.078125 31.195312 28.699219 31.3125 27.976562 C 31.429688 27.253906 33.019531 25.898438 32.789062 26.878906 C 32.554688 27.863281 31.949219 28.816406 31.949219 29.566406 C 31.949219 30.289062 31.109375 30.175781 30.964844 30.898438 C 30.847656 31.621094 31.082031 31.621094 31.6875 32.226562 C 32.296875 32.835938 31.917969 33.210938 31.804688 34.539062 C 31.6875 35.867188 28.042969 39.539062 27.550781 40.753906 C 27.058594 41.96875 27.316406 43.671875 27.316406 45.003906 C 27.316406 46.332031 26.824219 48.039062 28.15625 48.527344 C 29.488281 49.019531 29.605469 49.25 29.605469 50.464844 C 29.605469 51.679688 29.605469 53.152344 30.328125 53.992188 C 31.050781 54.832031 30.703125 54.714844 30.703125 56.074219 C 30.703125 57.433594 31.542969 56.679688 31.6875 57.777344 C 31.804688 58.878906 31.082031 59.367188 32.296875 60.207031 C 33.511719 61.046875 34.84375 61.652344 34.234375 60.324219 C 33.628906 58.992188 33.25 57.894531 32.644531 55.929688 C 32.035156 53.992188 31.660156 50.464844 32.410156 51.535156 C 33.136719 52.632812 34.121094 55.929688 35.21875 58.210938 C 36.320312 60.523438 37.648438 60.292969 37.648438 61.96875 C 37.648438 63.675781 36.320312 65.265625 38.980469 66.363281 C 41.671875 67.460938 43.613281 69.773438 45.203125 69.515625 C 46.796875 69.28125 47.75 68.300781 48.359375 69.398438 C 48.964844 70.496094 50.296875 71.941406 51.773438 71.941406 C 53.21875 71.941406 53.710938 72.925781 53.972656 74.371094 C 54.203125 75.816406 55.1875 76.074219 56.664062 76.566406 C 58.113281 77.058594 58.488281 78.648438 59.585938 78.503906 C 60.6875 78.386719 62.132812 77.898438 62.132812 78.996094 C 62.132812 80.09375 62.625 82.753906 60.804688 84.457031 C 58.980469 86.164062 58.113281 87.378906 59.09375 88.476562 C 60.078125 89.574219 59.210938 90.671875 58.71875 91.511719 C 58.226562 92.347656 59.09375 93.101562 60.050781 94.429688 C 61.035156 95.757812 62.367188 97.347656 63.207031 100.039062 C 64.042969 102.726562 65.289062 103.679688 67.34375 104.546875 C 69.425781 105.386719 70.992188 106.859375 70.992188 108.941406 C 70.992188 111.019531 70.875 118.074219 70.875 120.125 C 70.875 122.207031 71.972656 124.257812 71.597656 125.847656 C 71.222656 127.4375 71.597656 128.769531 72.089844 129.375 C 72.582031 129.984375 72.464844 131.3125 72.582031 132.671875 C 72.699219 134 74.175781 133.046875 74.175781 134.261719 C 74.175781 135.476562 73.566406 137.296875 74.289062 137.902344 C 75.011719 138.507812 73.449219 140.707031 76.722656 142.757812 C 80.019531 144.839844 80.25 144.957031 80.484375 145.300781 C 80.714844 145.679688 81.816406 144.578125 81.816406 145.1875 C 81.816406 145.792969 79.992188 147.613281 83.40625 147.613281 C 86.820312 147.613281 88.875 148.105469 86.820312 146.515625 C 84.738281 144.925781 83.523438 145.679688 83.175781 144.089844 C 82.796875 142.5 82.335938 142.757812 82.074219 141.660156 C 81.84375 140.5625 82.941406 140.070312 82.566406 138.972656 C 82.191406 137.875 80.742188 137.875 80.859375 136.777344 C 80.976562 135.675781 81.84375 134.578125 82.074219 134.085938 C 82.304688 133.597656 82.304688 133.105469 81.699219 132.640625 C 81.089844 132.152344 81.207031 132.035156 82.074219 131.773438 C 82.941406 131.542969 83.058594 131.890625 83.40625 130.675781 C 83.78125 129.460938 84.851562 129.578125 85.34375 129.230469 C 85.835938 128.855469 87.542969 128.394531 86.9375 126.804688 C 86.328125 125.214844 85.113281 124.492188 86.445312 124.492188 C 87.777344 124.492188 89.136719 124.375 89.976562 122.671875 C 90.816406 120.964844 90.46875 120.589844 91.453125 119.257812 C 92.4375 117.929688 92.550781 116.832031 92.550781 115.847656 C 92.550781 114.867188 92.058594 113.910156 93.390625 113.304688 C 94.722656 112.699219 99.121094 111.976562 99.730469 110.152344 C 100.335938 108.332031 100.945312 106.398438 100.714844 104.429688 C 100.480469 102.496094 100.335938 101.28125 101.695312 99.691406 C 103.027344 98.101562 104.734375 96.769531 104.734375 95.324219 C 104.765625 93.882812 105.402344 91.828125 103.203125 91.222656 Z M 103.203125 91.222656 " fill-opacity="1" fill-rule="nonzero"/></g><path fill="#eff0f2" d="M 125.746094 11.269531 C 127.078125 9.824219 126.730469 9.074219 128.554688 8.351562 C 130.378906 7.628906 129.886719 6.644531 129.652344 5.199219 C 129.421875 3.726562 129.652344 4.363281 130.378906 3.871094 C 131.101562 3.378906 132.199219 3.035156 133.910156 2.890625 C 135.617188 2.773438 134.023438 2.167969 134.023438 1.445312 C 134.023438 0.722656 132.808594 0.835938 131.101562 1.066406 C 129.394531 1.300781 129.652344 1.066406 128.410156 0.578125 C 127.195312 0.0859375 120.015625 0.0859375 118.164062 0.0859375 C 116.339844 0.0859375 113.042969 0.460938 111.335938 0.578125 C 109.628906 0.691406 109.742188 0.578125 106.472656 0.199219 C 103.171875 -0.175781 94.546875 0.0859375 91.363281 0.433594 C 88.210938 0.808594 85.894531 1.15625 83.8125 2.511719 C 81.726562 3.84375 80.394531 3.351562 78.082031 3.609375 C 75.765625 3.84375 75.535156 3.84375 74.433594 3.84375 C 73.335938 3.84375 73.449219 3.234375 71.511719 3.957031 C 69.574219 4.679688 70.179688 5.171875 69.425781 4.1875 C 68.703125 3.207031 67.71875 4.1875 64.304688 5.027344 C 60.890625 5.867188 65.519531 6.847656 66.621094 7.222656 C 66.621094 7.222656 68.9375 7.109375 70.265625 6.734375 C 71.597656 6.355469 72.207031 7.222656 73.074219 6.964844 C 73.914062 6.734375 74.175781 5.867188 79.035156 4.765625 C 83.898438 3.667969 87.3125 4.535156 89.28125 5.375 C 91.21875 6.210938 91.21875 5.75 92.929688 4.652344 C 94.636719 3.554688 97.558594 2.714844 100.597656 2.222656 C 103.636719 1.734375 101.695312 2.832031 99.757812 3.554688 C 97.820312 4.277344 96.113281 4.042969 96.457031 5.257812 C 96.835938 6.472656 100.597656 6.097656 101.695312 6.097656 C 102.796875 6.097656 102.914062 7.800781 103.027344 8.785156 C 103.144531 9.769531 102.914062 10.257812 103.144531 11.214844 C 103.375 12.195312 103.984375 12.050781 102.914062 13.035156 C 101.8125 14.015625 101.203125 13.871094 101.203125 15.578125 C 101.203125 17.285156 101.929688 19.105469 103.636719 20.316406 C 105.34375 21.53125 106.328125 21.648438 107.28125 19.710938 C 108.265625 17.773438 110.582031 16.5625 111.796875 15.953125 C 113.011719 15.347656 114.71875 15.953125 116.3125 14.507812 C 117.902344 13.0625 119.960938 13.671875 122.273438 12.917969 C 124.648438 12.253906 124.386719 12.746094 125.746094 11.269531 Z M 125.746094 11.269531 " fill-opacity="1" fill-rule="nonzero"/><path fill="#eff0f2" d="M 128.179688 14.074219 C 124.53125 14.566406 121.117188 13.351562 121.722656 15.289062 C 122.332031 17.226562 122.449219 20.144531 124.414062 19.539062 C 127.773438 18.496094 131.476562 17.949219 130.636719 16.386719 C 129.742188 14.796875 131.824219 13.582031 128.179688 14.074219 Z M 128.179688 14.074219 " fill-opacity="1" fill-rule="nonzero"/></svg>